<svg xmlns="http://www.w3.org/2000/svg" viewBox="0 0 24 24"><path fill="#F03" d="M9.4 5.7 6.8 7.2v6.6l-2.6-1.5-2.6 1.5 7.8 4.5V5.7m10.4-1.2L12 0 4.2 4.5v3L12 3l7.8 4.5v-3m-2.6 2.7-2.6-1.5v12.6l7.8-4.5-2.6-1.5-2.6 1.5V7.2m-4.65 3.25q-.1-.05-.2-.05l-.1-.5h-.55l-.05.5q-.1 0-.2.05l-.2-.3-.45.25.1.35q-.05.05-.05.1-.05 0-.1.05l-.35-.1-.25.45.3.2q-.05.1-.05.2l-.5.05v.55l.5.1q0 .1.05.2l-.3.2.25.45.35-.15.1.1q0 .05.05.1l-.1.35.45.25.2-.3q.1.05.2.05l.05.45h.55l.1-.45q.1 0 .2-.05l.2.3.45-.25-.15-.4q.05 0 .1-.05t.05-.1l.4.15.25-.45-.3-.2q.05-.1.05-.2l.45-.1v-.55l-.45-.05q0-.1-.05-.2l.3-.2-.25-.45-.35.1q-.05-.05-.1-.05l-.1-.1.15-.35-.45-.25-.2.3m-1.15.95q.25-.25.6-.25t.6.25q.2.25.2.6t-.2.6q-.25.2-.6.2t-.6-.2q-.25-.25-.25-.6t.25-.6m11 6.6v-3L12 21 1.6 15v3L12 24l10.4-6Z"/></svg>