<svg xmlns="http://www.w3.org/2000/svg" viewBox="0 0 24 24"><path fill="rgb(0,255,0)" d="m12.05 9.3.5 2.25q.1.55.05 1.15-.1.55-.45 1.05-.3.5-.8.85-.45.3-1.05.45-.6.1-1.15.05-.6-.15-1-.45-.55-.3-.85-.75-.35-.55-.45-1.1l-1.1-4.85L3.5 10.1q-.5.4-.7 1.15-.2.65-.05 1.25l.4 1.9L.4 16.9q-.45.4-.4.95-.05.5.3.9l4.4 4.8q.35.4.95.45.45.05.9-.3l3.55-3.3 5.5-1.2q1.05-.25 1.6-1.1.6-.95.35-2l.6-.1q.55-.15.85-.6.3-.45.2-1l-.55-2.55.3-.05q.4-.1.6-.4.2-.4.1-.8l-.4-1.9q-.1-.4-.4-.6-.35-.2-.75-.1l-6.05 1.3M24 6.15q0-.5-.35-.9L19.25.4Q18.9 0 18.3 0q-.5 0-.9.3l-3.65 3.35-4 .85q-.4.1-.65.25-.35.2-.65.4L7.35 6.3q-.25.2-.35.55-.1.35-.05.65l1.15 5.05q.1.6.75 1 .55.35 1.2.2.65-.15 1-.7.35-.6.25-1.2l-.8-3.5 7.3-1.6q.9-.2 1.75.25.8.55 1 1.45l.25 1.1 2.75-2.5q.4-.35.45-.9Z"/></svg>