<svg xmlns="http://www.w3.org/2000/svg" viewBox="0 0 24 24"><path fill="#FFF" d="m3.35 18.25-.1-.7-1.5-1.7-1.65 4.1q-.2.45 0 .9.2.5.65.65.45.2.95 0 .45-.2.6-.65l1.05-2.6m2.7-12.8q.55-.5.55-1.25t-.55-1.25q-.5-.55-1.25-.55t-1.25.55Q3 3.45 3 4.2t.55 1.25Q4.05 6 4.8 6t1.25-.55m14.65 12.1-.05.7 1.05 2.6q.1.35.45.55.3.2.65.2.25 0 .45-.1.45-.15.65-.65.2-.45 0-.9l-1.65-4.1-1.55 1.7m-.25-12.1q.55-.5.55-1.25t-.55-1.25q-.5-.55-1.25-.55t-1.3.55q-.5.5-.5 1.25t.5 1.25q.55.55 1.3.55t1.25-.55m2.2 6.65-.7-3q-.15-.6-.5-1.05-.4-.45-.9-.65-.55-.25-1.1-.2-.55.05-1.05.3-.6.4-1.1.95-.45.6-.7 1.3L16.2 11l-.6.4V7.8q0-.25-.2-.4-.15-.2-.4-.2H9q-.25 0-.45.2-.15.15-.15.4v3.6l-.6-.4-.45-1.25q-.2-.7-.7-1.3-.45-.55-1.1-.95-.45-.25-1-.3-.55-.05-1.1.2-.5.2-.9.65-.35.45-.5 1.05l-.7 3q-.1.55.05 1.1.1.55.5 1l2.55 2.85.35 3.5q.05.45.4.75.35.3.8.3h.15q.45-.05.8-.45.3-.4.25-.9l-.4-3.45q-.05-.4-.2-.7-.15-.35-.35-.65l-1.65-1.8.65-2.65.25.75q.25.75.95 1.25l1.9 1.2q.1.1.3.15.2.05.35.05h6q.15 0 .35-.05.15-.05.3-.15l1.9-1.2q.7-.5.95-1.25l.25-.75.65 2.65-1.65 1.8q-.25.3-.4.65-.1.3-.15.7l-.4 3.45q-.05.5.25.9t.8.45H18q.45 0 .8-.3.35-.3.4-.75l.35-3.5 2.55-2.85q.35-.45.5-1 .15-.55.05-1.1Z"/></svg>