<svg xmlns="http://www.w3.org/2000/svg" viewBox="0 0 24 24"><path fill="#333" d="M18.1 18.25q-.25-.8-.65-1.25-.35-.5-.8-.65-.45-.25-1.35-.25h-2.35v7.85h2.4q.8 0 1.3-.25.5-.2.85-.65t.55-1.2q.25-.75.25-1.75 0-1.1-.2-1.85m-2.25-.75q.35.1.6.4.25.3.4.8.1.5.1 1.35 0 .85-.1 1.35-.1.5-.3.75-.2.2-.45.35-.3.1-.9.1h-1v-5.15h.6q.8 0 1.05.05M4.8 17q-.3-.5-.75-.7-.4-.2-1.45-.2H0v7.85h2.2q1.4 0 1.8-.1.55-.15.95-.75.45-.6.45-1.45 0-.7-.35-1.2-.3-.45-.9-.65.45-.25.7-.7.25-.45.25-1 0-.65-.3-1.1m-1.5.45q.2.1.35.3.15.2.15.55 0 .4-.15.6-.2.25-.55.3-.15.05-.95.05H1.3V17.4h.75q1.05 0 1.25.05m.15 3.15q.3.1.45.35.15.25.15.65 0 .35-.15.6t-.35.3q-.25.1-1.05.1H1.3v-2.1h1.05q.85 0 1.1.1m4.3-4.5H6.5v7.85h1.2v-5.1l2.55 5.1h1.3V16.1h-1.2v5.25l-2.6-5.25m6.4-4h.05l.2-.3L3.75 3.55H3.5q-.15 0-.3.15-.1.1-.1.3v5.35q0 .2.1.35.15.1.3.1h3.65l2.55 2.3q.55.45 1.3.4.75-.1 1.2-.65v-.05l.5.45q.35.3.8.25.4-.05.65-.4m7.95 5.35H24V16.1h-5.05v1.35h1.9v6.5h1.25v-6.5m-1.15-8.1V4q0-.2-.1-.3-.15-.15-.35-.15h-3.1l-1.55-1.5q-.1-.15-.3-.2-.15-.1-.3-.1h-2.4q-.2 0-.35.1-.15.05-.3.15L9.75 4.25l-.7-.55 2.1-1.95H8.8q-.15 0-.35.1-.15.05-.25.2l-.6.55L4.35.05Q4.2-.05 4 0q-.15 0-.3.15l-.55.7q-.1.15-.05.35 0 .15.15.3L19.7 14.2q.15.1.3.05.2 0 .3-.15l.55-.7q.15-.15.1-.35 0-.15-.15-.3l-9.25-7.1L13.2 4.1q.15-.1.35-.1.2 0 .3.15.15.15.1.3 0 .2-.1.3l-.75.7 4.05 3.3q.25.2.4.45.2.3.25.6h2.7q.2 0 .35-.15.1-.1.1-.3Z"/></svg>