<svg xmlns="http://www.w3.org/2000/svg" viewBox="0 0 24 24"><path fill="#FFF" d="M24 2.25q0-.95-.65-1.6Q22.7 0 21.75 0H2.25Q1.3 0 .65.65 0 1.3 0 2.25v15q0 .95.65 1.6.65.65 1.6.65h7.5L9 21.75H5.65q-.5 0-.8.35-.35.3-.35.8 0 .45.35.75.3.35.8.35H18.4q.45 0 .75-.35.35-.3.35-.75 0-.5-.35-.8-.3-.35-.75-.35H15l-.75-2.25h7.5q.95 0 1.6-.65.65-.65.65-1.6v-15M21 3v13.5H3V3h18m-8.6 6.5q.1.1.1.2v4.9q.5 0 .95-.15.5-.2.85-.5l1.1 1.1q.2.2.45.2.3 0 .45-.2.2-.2.2-.45t-.2-.45l-1.2-1.2q.3-.6.3-1.25v-.3h1.1q.25 0 .45-.2t.2-.45q0-.25-.2-.45-.15-.2-.45-.2h-1.1V8.9l.9-.95q.2-.15.2-.45 0-.25-.2-.45-.15-.2-.45-.2-.25 0-.45.2l-1.1 1.1H9.7l-1.1-1.1q-.2-.2-.45-.2-.3 0-.45.2-.2.2-.2.45 0 .3.2.45l.9.95v1.2H7.5q-.3 0-.5.2-.15.2-.15.45t.2.45q.2.2.45.2h1.1v.3q0 .65.3 1.25l-1.2 1.2q-.2.2-.2.45t.2.45q.15.2.45.2.25 0 .45-.2l1.1-1.1q.35.3.85.5.45.15.95.15V9.7q0-.1.1-.2.05-.05.15-.05h.5q.1 0 .15.05m-1.25-4.4-.1-.5q-.05-.2-.25-.3-.15-.1-.3-.05-.2.05-.3.25-.1.15-.05.35l.25.8q-.3.3-.45.65-.2.45-.2.9h4.5q0-.45-.15-.9-.15-.35-.45-.65l.25-.8q.05-.2-.05-.35-.1-.2-.3-.25-.15-.05-.35.05-.15.1-.2.3l-.15.5q-.4-.15-.85-.15-.4 0-.85.15Z"/></svg>