<svg xmlns="http://www.w3.org/2000/svg" viewBox="0 0 24 24"><path fill="#FFF" d="M5.7 2q-.3-.65-.4-1.35-.05-.3-.25-.45-.2-.2-.5-.2h-.8Q3.4 0 3.2.25q-.25.25-.2.6.15 1.1.65 2.15.45 1 1.25 1.8.45.45.7.95.25.55.35 1.1.05.3.25.45.25.2.5.2h.8q.35 0 .55-.25.25-.25.2-.6-.15-1-.55-1.9-.45-.9-1.15-1.6Q6 2.65 5.7 2m4.45 2.8q.45.45.7.95.25.55.35 1.1.05.3.25.45.25.2.5.2h.8q.35 0 .55-.25.25-.25.2-.6-.15-1-.55-1.9-.45-.9-1.15-1.6-.55-.5-.85-1.15-.3-.65-.4-1.35-.05-.3-.25-.45-.2-.2-.5-.2H9q-.35 0-.55.25-.25.25-.2.6.15 1.1.65 2.15.45 1 1.25 1.8m12.3 5.75q-.7-.75-1.65-1.15-1-.4-2.05-.4H1.5q-.6 0-1.05.45Q0 9.9 0 10.5v9q0 .9.35 1.75.35.8.95 1.45.65.6 1.45.95.85.35 1.75.35h9q.9 0 1.75-.35.8-.35 1.45-.95.6-.65.95-1.45.35-.85.35-1.75h.75q1.05 0 2.05-.4.95-.4 1.65-1.15.75-.7 1.15-1.65.4-1 .4-2.05 0-1.05-.4-2.05-.4-.95-1.15-1.65M21 14.25q0 .95-.65 1.6-.65.65-1.6.65H18V12h.75q.95 0 1.6.65.65.65.65 1.6Z"/></svg>