<svg xmlns="http://www.w3.org/2000/svg" viewBox="0 0 24 24"><path fill="#9400D3" d="M22.5 2.25q0-.9-.65-1.55-.7-.7-1.6-.7H3.75q-.9 0-1.55.7-.7.65-.7 1.55v19.5q0 .9.7 1.6.65.65 1.55.65h16.5q.9 0 1.6-.65.65-.7.65-1.6V2.25m-3.2.95q.2.2.2.4v4.8q0 .25-.2.4-.15.2-.4.2H5.1q-.2 0-.4-.2-.2-.15-.2-.4V3.6q0-.2.2-.4t.4-.2h13.8q.25 0 .4.2M12.9 12q.2 0 .4.2t.2.4v1.8q0 .25-.2.4-.15.2-.4.2h-1.8q-.25 0-.4-.2-.2-.15-.2-.4v-1.8q0-.2.2-.4.15-.2.4-.2h1.8m3.8.2q.2-.2.4-.2h1.8q.25 0 .4.2.2.2.2.4v7.8q0 .25-.2.4-.15.2-.4.2h-1.8q-.2 0-.4-.2-.2-.15-.2-.4v-7.8q0-.2.2-.4M5.1 12h1.8q.25 0 .4.2.2.2.2.4v1.8q0 .25-.2.4-.2.2-.4.2H5.1q-.2 0-.4-.2-.2-.15-.2-.4v-1.8q0-.2.2-.4t.4-.2m1.8 6q.25 0 .4.2.2.2.2.4v1.8q0 .25-.2.4-.2.2-.4.2H5.1q-.2 0-.4-.2-.2-.15-.2-.4v-1.8q0-.2.2-.4t.4-.2h1.8m3.8.2q.15-.2.4-.2h1.8q.2 0 .4.2t.2.4v1.8q0 .25-.2.4-.15.2-.4.2h-1.8q-.25 0-.4-.2-.2-.15-.2-.4v-1.8q0-.2.2-.4Z"/></svg>