<svg xmlns="http://www.w3.org/2000/svg" viewBox="0 0 24 24"><path fill="#FFF" d="M23.65 6.05q-.3-.75-.9-1.35-.6-.6-1.35-.9-.8-.35-1.7-.35h-2.55V1.3q0-.55-.4-.9-.35-.4-.9-.4H1.3Q.75 0 .4.4q-.4.35-.4.9v21.45q0 .5.4.9.35.35.9.35h14.55q.55 0 .9-.35.4-.4.4-.9v-2.3l4.3-1.9q1.15-.5 1.85-1.6.7-1.05.7-2.3v-6.9q0-.9-.35-1.7M20.3 7.1q.25.3.25.65v6.9q0 .25-.1.45-.15.2-.4.3l-2.9 1.3V6.85h2.55q.35 0 .6.25m-8.55-1.7q.25.25.25.6v12q0 .35-.25.6t-.6.25q-.35 0-.6-.25t-.25-.6V6q0-.35.25-.6t.6-.25q.35 0 .6.25M6 5.15q.35 0 .6.25t.25.6v12q0 .35-.25.6t-.6.25q-.35 0-.6-.25t-.25-.6V6q0-.35.25-.6t.6-.25Z"/></svg>