<svg xmlns="http://www.w3.org/2000/svg" viewBox="0 0 24 24"><path fill="#333" d="M22.95 2.3q-.7-.9-1.65-1.5-.95-.55-2.05-.75-1.1-.15-2.15.1-1.15.3-2.1.95L3.1 10.2q-1.2.9-2 2.25-.75 1.25-1 2.75-.2 1.5.1 2.95.35 1.45 1.25 2.7.9 1.3 2.2 2.1 1.3.75 2.75.95 1.45.2 2.85-.1 1.5-.35 2.75-1.3l9.8-7.45q.25-.15.3-.5.05-.3-.15-.6L21 12.7q-.2-.3-.5-.35-.35 0-.65.2L10.1 19.9q-.7.55-1.55.8-.85.2-1.7.05-.8-.1-1.55-.55-.75-.45-1.25-1.2-.55-.75-.75-1.6-.15-.85-.05-1.75.15-.85.6-1.65.45-.75 1.2-1.3l11.9-9q.85-.65 1.85-.5 1 .15 1.55 1 .6.8.45 1.85-.15 1.05-.95 1.7L9.45 15.6q-.2.2-.4.15-.25 0-.4-.25-.1-.15-.05-.45 0-.25.25-.45L17 8.45q.25-.2.3-.55.05-.3-.15-.6l-.95-1.25q-.2-.25-.55-.3-.3-.05-.6.15l-8.1 6.15q-.65.5-1 1.15-.4.6-.5 1.35-.1.7 0 1.45.15.7.6 1.3.45.7 1.1 1.1.65.35 1.35.5.75.1 1.5-.1.75-.15 1.4-.65l10.35-7.85q.95-.7 1.5-1.65.55-1 .7-2.1.15-1.1-.1-2.15-.2-1.15-.9-2.1Z"/></svg>