<svg xmlns="http://www.w3.org/2000/svg" viewBox="0 0 24 24"><path fill="#FFF" d="M.2 13.45q-.2.3-.2.55v9.35q0 .3.2.5.2.15.5.15h4.35q3.3 0 4.9-1.25 1.55-1.3 1.55-4.1 0-2.7-1.55-4.1-1.6-1.25-4.9-1.25H.7q-.3 0-.5.15m2.7 2H5q2.05 0 2.8.75.7.7.7 2.45 0 1.85-.7 2.55-.75.75-2.8.75H2.9v-6.5m8.25-11.5q.25-.2.25-.65 0-1.5-1.35-2.4Q8.8 0 7.1 0H5.5Q2.8 0 1.4 1.35 0 2.65 0 5.4q0 2.7 1.4 4.05 1.4 1.3 4.1 1.3h1.8q1.65 0 2.95-.9Q11.5 9 11.5 7.45q0-.25-.2-.55-.15-.25-.55-.25H9.9q-.7 0-1.1.8-.5 1.2-1.75 1.2h-1.5q-1.6 0-2.2-.65-.55-.7-.55-2.6 0-1.9.55-2.6.6-.7 2.2-.7h1.3q1.25 0 1.85 1.2.35.85 1.05.85h.9q.25 0 .5-.2m12.65 11.3q.2-.2.2-.5v-.7q0-.3-.2-.5-.25-.2-.55-.2h-9.5q-.25 0-.4.2-.25.2-.25.5v.7q0 .3.25.5.15.2.4.2h3.4v7.8q0 .35.2.5.2.2.5.2h1.4q.25 0 .5-.2.2-.15.2-.5v-7.8h3.3q.3 0 .55-.2M23.3.1h-1.25q-.25 0-.5.15-.2.2-.2.55v6.85L16.9.8q-.2-.25-.45-.55-.3-.15-.55-.15h-2.15q-.3 0-.5.15-.15.3-.15.55V10q0 .3.15.5.2.2.5.2h1.35q.25 0 .45-.2.25-.2.25-.5V3.6l4 6.4q.2.3.5.5t.55.2h2.45q.35 0 .5-.2.2-.2.2-.5V.8q0-.35-.2-.55-.15-.15-.5-.15Z"/></svg>