<svg xmlns="http://www.w3.org/2000/svg" viewBox="0 0 24 24"><path fill="#F60" d="M16.3 10.75q-.25-.2-.55-.2h-7.5q-.3 0-.55.2-.2.25-.2.55 0 .3.2.5.25.2.55.2h7.5q.3 0 .55-.2.2-.2.2-.5t-.2-.55M15.75 9q.3 0 .55-.2.2-.25.2-.55 0-.3-.2-.5-.25-.2-.55-.2h-7.5q-.3 0-.55.2-.2.25-.2.5 0 .35.2.55.25.2.55.2h7.5m7.6 14.4q.65-.65.65-1.55V11.8l-9.8 7.1q-.5.35-1.05.55-.55.15-1.15.15-1.3 0-2.2-.7L0 11.8v10q0 .95.65 1.6.65.65 1.6.65h19.5q.95 0 1.6-.65m.4-14.9q-.2-.5-.6-.8-.6-.5-1.4-1.1V4.55q0-.95-.65-1.6-.65-.65-1.6-.65h-3.65l-.4-.3q-1-.8-1.6-1.2Q12.7.05 12 .05q-.7 0-1.85.75-.35.25-.9.65-.5.4-.7.55l-.4.3H4.5q-.95 0-1.6.65-.65.65-.65 1.6V6.6L.85 7.7q-.4.3-.6.8-.25.45-.25.95v.5l4.5 3.25V4.55h15v8.65L24 9.95v-.5q0-.5-.25-.95Z"/></svg>