<svg xmlns="http://www.w3.org/2000/svg" viewBox="0 0 24 24"><path fill="#FFF" d="M24 22.2q.05-.5-.1-1l-5.85-20Q17.9.7 17.6.35q-.3-.3-.7-.3h-4.05l.1 1.45q0 .2-.1.4-.1.15-.25.15h-1.2q-.15 0-.25-.15-.1-.2-.1-.4l.1-1.45H7.1q-.4 0-.7.3-.3.35-.45.85L.1 21.2q-.15.5-.1 1 .05.5.2.95.2.4.45.65.3.25.6.25h8.2l.45-6.1q.05-.4.2-.65.2-.25.45-.25h2.9q.25 0 .45.25.15.25.2.65l.45 6.1h8.2q.3 0 .6-.25t.45-.65q.15-.45.2-.95M10.85 4.5q0-.2.1-.3.1-.15.25-.15h1.6q.15 0 .25.15.1.1.1.3l.2 2.7q0 .35-.15.6t-.35.25h-1.7q-.2 0-.35-.25-.15-.25-.15-.6l.2-2.7m-.25 5.8q.2-.25.45-.25h1.9q.25 0 .45.25t.2.65l.2 3q.05.45-.15.75-.2.35-.5.35h-2.3q-.3 0-.5-.35-.2-.3-.15-.75l.2-3q0-.4.2-.65Z"/></svg>