<svg xmlns="http://www.w3.org/2000/svg" viewBox="0 0 24 24"><path fill="#FFF" d="M8.85 14.75Q7.7 15.9 7.7 17.9q0 2.05 1.15 3.1 1.05 1.15 3.2 1.15 4.1 0 4.1-2.15 0-.15-.1-.25-.15-.2-.4-.2h-1.1q-.5 0-.9.45-.35.5-1.45.5-.9 0-1.35-.5-.45-.3-.5-1.35h5.6q.2 0 .3-.1.15-.15.15-.3v-.5q0-1.9-1.2-3.05-1.05-1.05-3.15-1.05-2.15 0-3.2 1.1m1.45 2.3q.1-1.7 1.75-1.7t1.7 1.7H10.3M6.05 12.1q-.15-.15-.3-.15-.05-.05-.15-.05-.05 0-.15.05-1.45.95-2.2 2.6-.8 1.55-.8 3.4 0 1.8.8 3.45.75 1.6 2.2 2.5.1.1.15.1.1-.05.15-.05.15-.05.3-.15l.35-.65v-.2q0-.1-.15-.4-1.6-1.95-1.6-4.6 0-2.65 1.6-4.65.15-.3.15-.4v-.15l-.35-.65m10.45-8q.25-.15.25-.6 0-1-1.1-1.7-1.1-.75-2.55-.75v-.6q0-.2-.1-.35-.1-.1-.25-.1h-1.4q-.2 0-.3.1-.1.15-.1.35v.6q-2.1.1-2.95.8-.9.75-.9 2.05 0 1 .85 1.7.8.75 3 1.25v2.1h-.05q-1.15 0-1.45-.7-.35-.6-.95-.6h-.8q-.25 0-.45.15Q7 8 7 8.35q0 1.1 1.1 1.85 1.2.7 2.55.7h.3v.6q0 .2.1.3.1.1.3.1h1.4q.15 0 .25-.1t.1-.3v-.6q2.2-.05 3.05-.8.85-.75.85-2.05 0-1.35-1.25-2-.95-.6-2.65-.95V2.95q1 .15 1.25.7.3.6.95.6h.75q.2 0 .45-.15m-5.65-1.15h.1v1.7q-1.3-.4-1.3-.85 0-.85 1.2-.85m2.25 6V7.3q1.35.35 1.35.85 0 .8-1.15.8h-.2m8.5 9q0-1.85-.75-3.4-.75-1.65-2.25-2.6-.1-.05-.25-.05-.1 0-.25.2l-.45.65v.15q0 .1.15.4 1.65 2 1.65 4.65 0 2.65-1.65 4.6-.15.3-.15.4v.2l.45.65q.1.1.25.15 0 .05.1.05.05 0 .15-.1 1.5-.9 2.25-2.5.75-1.65.75-3.45Z"/></svg>