<svg xmlns="http://www.w3.org/2000/svg" viewBox="0 0 24 24"><path fill="#FFF" d="M20.45 7.25v-.9q0-.2-.15-.3-.1-.15-.3-.15h-3.9q-.25 0-.4.15-.1.1-.1.3v.9q0 .15.1.3.15.1.4.1H20q.2 0 .3-.1.15-.15.15-.3M12.4.05q-.25 0-.5.2-.15.15-.15.5V7.5L7.3.75Q7.15.5 6.9.25q-.35-.2-.6-.2H4.2q-.3 0-.5.2-.15.25-.15.5V9.8q0 .3.15.5.2.2.5.2h1.3q.25 0 .45-.2.25-.2.25-.5V3.5l3.95 6.3q.2.3.5.5.35.2.6.2h2.4q.3 0 .5-.2t.2-.5V.75q0-.35-.2-.5-.2-.2-.5-.2H12.4M18.15 0h-.25q-2.3 0-2.3 2.35t2.3 2.35h.25q2.3 0 2.3-2.35T18.15 0M18 1.1q.45 0 .75.3t.3.95q0 .7-.3 1-.3.3-.75.3t-.75-.3q-.3-.3-.3-1 0-.65.3-.95.3-.3.75-.3M8.85 14.75Q7.7 15.9 7.7 17.9q0 2.05 1.15 3.1 1.05 1.15 3.2 1.15 4.1 0 4.1-2.15 0-.15-.1-.25-.15-.2-.4-.2h-1.1q-.5 0-.9.45-.35.5-1.45.5-.9 0-1.35-.5-.45-.3-.5-1.35h5.6q.2 0 .3-.1.15-.15.15-.3v-.5q0-1.9-1.2-3.05-1.05-1.05-3.15-1.05-2.15 0-3.2 1.1m1.45 2.3q.1-1.7 1.75-1.7t1.7 1.7H10.3M6.05 12.1q-.15-.15-.3-.15-.05-.05-.15-.05-.05 0-.15.05-1.45.95-2.2 2.6-.8 1.55-.8 3.4 0 1.8.8 3.45.75 1.6 2.2 2.5.1.1.15.1.1-.05.15-.05.15-.05.3-.15l.35-.65v-.2q0-.1-.15-.4-1.6-1.95-1.6-4.6 0-2.65 1.6-4.65.15-.3.15-.4v-.15l-.35-.65m14.8 9.3q.75-1.65.75-3.45 0-1.85-.75-3.4-.75-1.65-2.25-2.6-.1-.05-.25-.05-.1 0-.25.2l-.45.65v.15q0 .1.15.4 1.65 2 1.65 4.65 0 2.65-1.65 4.6-.15.3-.15.4v.2l.45.65q.1.1.25.15 0 .05.1.05.05 0 .15-.1 1.5-.9 2.25-2.5Z"/></svg>