<svg xmlns="http://www.w3.org/2000/svg" viewBox="0 0 24 24"><path fill="#4352B8" d="M11.6 19.45v.1q.75 2.2 1.45 4.45l4.15-4.5v-.05h-5.6Z"/><path fill="#666" d="M19.35 11.45H14.6L16.05 16q.15-.1.3-.25.35-.3.65-.65-1-1.2-1.45-2-.15-.25-.2-.45l-.05-.15h1.25v.1q.05.15.15.3.3.6 1 1.45.6-.65 1-1.35.45-.8.65-1.55m3.15 0h-2.05q-.1.85-.75 1.9-.5.85-1.3 1.8 1.15 1.2 2.9 2.8l-.75.8q-1.65-1.55-2.85-2.8-.4.45-.9.9-.2.2-.35.3l.7 2.3h.05v.05L13.05 24h9.4q.6 0 1.05-.4v-.05h.05l.05-.05q.4-.45.4-1.05V6.4q0-.65-.45-1.1-.5-.5-1.15-.5h-9.95l1.85 5.7h2.2V9H18v1.5h4.5v.95Z"/><path fill="#4285F4" d="M12.45 4.8 10.95 0H1.6Q.95 0 .45.45 0 .95 0 1.6v16.3q0 .65.45 1.1.5.5 1.15.5h10v-.05h5.55l-.7-2.3-.4-1.15-1.45-4.55-.3-.95-1.85-5.7m-2.2 4.25q.05.2.05.35.05.2.05.45 0 .8-.25 1.45-.25.7-.75 1.15-.5.5-1.15.8-.65.25-1.45.25-.75 0-1.45-.3t-1.2-.8q-.55-.5-.8-1.2-.3-.7-.3-1.45t.3-1.45q.25-.7.8-1.2.5-.5 1.2-.8Q6 6 6.75 6t1.4.25q.6.25 1.1.75l-1 .95q-.25-.25-.6-.4-.4-.2-.9-.2t-.95.2q-.4.15-.75.5-.3.35-.5.75-.15.45-.15.95 0 .5.15.95.2.4.5.75.35.35.75.5.45.2.95.2 1 0 1.65-.6.25-.25.4-.6.1-.3.15-.6h-2.2v-1.3h3.5Z"/></svg>