<svg xmlns="http://www.w3.org/2000/svg" viewBox="0 0 24 24"><path fill="#00AC47" d="M5.6 16.25v5.6h11.8q.7 0 1.2-.45.45-.5.45-1.2v-3.5L13.6 12v4.25h-8M24 5.15q0-.55-.45-.75-.5-.2-.9.1l-3.6 2.95v9.25l3.6 2.95q.4.3.9.1.45-.25.45-.75V5.15Z"/><path fill="#2684FC" d="M5.6 7.75H0v8.5h5.6v-8.5Z"/><path fill="#E94235" d="M5.6 2.15 0 7.75h5.6v-5.6Z"/><path fill="#00832D" d="M19.05 7.45 13.6 12l5.45 4.7V7.45Z"/><path fill="#FFBA00" d="M13.6 7.75V12l5.45-4.55v-3.7q0-.65-.45-1.15-.5-.45-1.2-.45H5.6v5.6h8Z"/><path fill="#0066DA" d="M0 16.25v3.95q0 .7.5 1.2.45.45 1.15.45H5.6v-5.6H0Z"/></svg>