<svg xmlns="http://www.w3.org/2000/svg" viewBox="0 0 24 24"><path fill="#34A853" d="M1.3 17.4q1.5 3 4.45 4.8.65.4 1.3.7Q9.45 24 12.3 24q3.05 0 5.4-1.1 1.5-.7 2.65-1.8l-3.9-3q-1.75 1.15-4.15 1.15-2.35 0-4.3-1.4-1.85-1.35-2.6-3.55l-4.1 3.1Z"/><path fill="#FBBC05" d="M1.3 6.65Q0 9.15 0 12q0 2.9 1.3 5.4l4.1-3.1q-.45-1.1-.45-2.3 0-1.15.45-2.25l-4.1-3.1Z"/><path fill="#EA4335" d="M12.3 4.75q2.7 0 4.7 1.85l3.45-3.45Q17.1 0 12.3 0 8.75 0 5.75 1.85q-2.9 1.8-4.45 4.8l4.1 3.1Q6.15 7.55 8 6.2q1.95-1.45 4.3-1.45Z"/><path fill="#4285F4" d="M24 12.3q0-1.15-.15-2.3H12.3v4.55h6.6q-.45 2.25-2.45 3.55l3.9 3Q24 17.8 24 12.3Z"/></svg>