<svg xmlns="http://www.w3.org/2000/svg" viewBox="0 0 24 24"><path fill="#2684FC" d="m7.55 15.85-3.8 6.55q.6.35 1.25.35h13.95q.55 0 1.25-.35l-3.85-6.55h-8.8Z"/><path fill="#00AC47" d="M8.15 1.65q-.55.3-.85.85l-7 12.15q-.3.55-.3 1.2h7.55L12 8.15l-3.85-6.5Z"/><path fill="#00832D" d="M15.75 1.65q-.7-.4-1.2-.4H9.4q-.55 0-1.25.4L12 8.15l3.75-6.5Z"/><path fill="#EA4335" d="M23.6 17.05q.4-.65.4-1.2h-7.65l3.85 6.55q.45-.3.9-.9l2.5-4.45Z"/><path fill="#FFBA00" d="M24 15.85q0-.65-.4-1.2l-7-12.15q-.25-.55-.85-.85L12 8.15l4.35 7.7H24Z"/><path fill="#0066DA" d="M2.8 21.5q.25.5.95.9l3.8-6.55H0q0 .6.3 1.2l2.5 4.45Z"/></svg>