<svg xmlns="http://www.w3.org/2000/svg" viewBox="0 0 24 24"><path fill="#4285F4" d="m13.2 10 .6.95 1.2-.9v5.75h1.2V8.45h-.85L13.2 10m-1.45-.75q-.25-.45-.8-.7-.6-.3-1.2-.3-.9 0-1.5.5-.55.45-.8 1.05l1.1.5q.15-.4.4-.65.3-.25.75-.25.55 0 .85.25.3.25.3.7 0 .5-.35.8-.35.25-.9.25h-.55v1.1h.65q.6 0 1 .3.4.35.4.9 0 .5-.4.8-.4.35-.9.35-.55 0-.9-.3-.4-.35-.5-.9l-1.1.45q.25.9.95 1.4.7.45 1.55.45.75 0 1.3-.25.55-.3.9-.8.35-.55.35-1.15 0-.65-.35-1.1-.35-.5-.9-.7v-.05q.4-.25.7-.65.25-.4.25-.95 0-.6-.3-1.05M18.3 5.7V0H1.9Q1.1 0 .55.55T0 1.9v16.4h5.7V5.7h12.6Z"/><path fill="#FBBC04" d="M24 18.3V5.7h-5.7v12.6H24Z"/><path fill="#1967D2" d="M23.45.55Q22.9 0 22.1 0h-3.8v5.7H24V1.9q0-.8-.55-1.35Z"/><path fill="#34A853" d="M5.7 18.3V24h12.6v-5.7H5.7Z"/><path fill="#188038" d="M.55 23.45Q1.1 24 1.9 24h3.8v-5.7H0v3.8q0 .8.55 1.35Z"/><path fill="#EA4335" d="M18.3 18.3V24l5.7-5.7h-5.7Z"/></svg>