<svg xmlns="http://www.w3.org/2000/svg" viewBox="0 0 24 24"><path fill="#FFF" d="M23.05 18.2q-.25-.2-.55-.2h-21q-.3 0-.55.2-.2.25-.2.55v.75q0 1.25.9 2.1.85.9 2.1.9h16.5q1.25 0 2.1-.9.9-.85.9-2.1v-.75q0-.3-.2-.55m-1.3-1.7q.95 0 1.6-.65.65-.65.65-1.6 0-.95-.65-1.6-.65-.65-1.6-.65H2.25q-.95 0-1.6.65-.65.65-.65 1.6 0 .95.65 1.6.65.65 1.6.65h19.5m1.15-9.55q-.75-1.15-1.85-2.15t-2.5-1.7q-3-1.6-6.55-1.6T5.45 3.1q-1.4.7-2.5 1.7T1.1 6.95q-.3.55-.35 1.2 0 .6.25 1.15.25.55.7.85.45.35 1.05.35h18.5q.6 0 1.05-.35.45-.3.7-.85.25-.55.25-1.15-.05-.65-.35-1.2M18 5.25q.3 0 .55.2.2.25.2.55 0 .3-.2.55-.25.2-.55.2-.3 0-.55-.2-.2-.25-.2-.55 0-.3.2-.55.25-.2.55-.2m-6.55-1.3q.25-.2.55-.2.3 0 .55.2.2.25.2.55 0 .3-.2.55-.25.2-.55.2-.3 0-.55-.2-.2-.25-.2-.55 0-.3.2-.55m-4.9 1.5q.2.25.2.55 0 .3-.2.55-.25.2-.55.2-.3 0-.55-.2-.2-.25-.2-.55 0-.3.2-.55.25-.2.55-.2.3 0 .55.2Z"/></svg>