<svg xmlns="http://www.w3.org/2000/svg" viewBox="0 0 24 24"><path fill="#FFF" d="M4.65 9.15q-.9.85-.9 2.1v2.25q0 1.25.9 2.1.85.9 2.1.9h.75q.6 0 1.05-.45Q9 15.6 9 15V9.75q0-.6-.45-1.05-.45-.45-1.05-.45h-.75q-1.25 0-2.1.9m15.6 4.35v-2.25q0-1.25-.9-2.1-.85-.9-2.1-.9h-.75q-.6 0-1.05.45-.45.45-.45 1.05V15q0 .6.45 1.05.45.45 1.05.45h.75q1.25 0 2.1-.9.9-.85.9-2.1M23 7.4q-.95-2.15-2.55-3.8-1.65-1.7-3.8-2.65Q14.45 0 12 0T7.35.95Q5.2 1.9 3.55 3.6 1.95 5.25 1 7.4.1 9.6 0 12v.75q0 .3.2.55.25.2.55.2h.75q.3 0 .55-.2.2-.25.2-.55V12q0-2 .75-3.8.75-1.75 2.1-3.1T8.2 3q1.8-.75 3.8-.75 2 0 3.8.75 1.75.75 3.1 2.1T21 8.2q.75 1.8.75 3.8v7.75q0 .85-.6 1.4-.55.6-1.4.6H15q0-.95-.65-1.6-.65-.65-1.6-.65h-1.5q-.95 0-1.6.65-.65.65-.65 1.6 0 .95.65 1.6.65.65 1.6.65h8.5q.9 0 1.65-.35.75-.3 1.35-.9.6-.55.9-1.35.35-.75.35-1.65V12q-.1-2.4-1-4.6Z"/></svg>