<svg xmlns="http://www.w3.org/2000/svg" viewBox="0 0 24 24"><path fill="#333" d="M24 8.25q0-.95-.65-1.6Q22.7 6 21.75 6h-9l-3-3h-7.5q-.95 0-1.6.65Q0 4.3 0 5.25v13.5q0 .95.65 1.6.65.65 1.6.65h19.5q.95 0 1.6-.65.65-.65.65-1.6V8.25m-2.4 1.6q.25.25.25.65 0 .35-.25.65l-.9.85q-.05.1-.15.1-.1 0-.15-.1l-2.1-2.1q-.1-.05-.1-.15 0-.1.1-.15l.85-.9q.25-.25.65-.25.35 0 .65.25l1.15 1.15m-11.4 0 .95-.95q.1-.05.15-.1.1 0 .2.05.1 0 .15.1.05.05.05.15v2.8q0 .15-.1.25-.1.05-.25.05H8.6q-.1 0-.2-.05l-.1-.1q-.05-.1 0-.2 0-.1.05-.15l1-1q-.5-.45-1.1-.7-.65-.25-1.35-.25-.7 0-1.35.3-.65.25-1.15.75-.45.5-.75 1.1-.25.7-.25 1.4t.25 1.35q.3.65.75 1.15.5.5 1.15.75.65.3 1.35.3.65 0 1.2-.2.55-.2 1-.6.15-.1.35-.1.15.05.3.15l.2.2q.15.15.15.35-.05.25-.2.35-.6.5-1.35.8-.8.25-1.65.25-.95 0-1.85-.35-.85-.4-1.5-1.05t-1.05-1.5q-.35-.9-.35-1.85 0-1 .4-1.85.35-.85 1-1.55.65-.65 1.5-1 .9-.35 1.85-.35.95 0 1.8.35.85.35 1.5.95m7.5.4q.1 0 .15.1l2.1 2.1q.1.05.1.15 0 .1-.1.15l-5.15 5.2-2.15.2q-.25.05-.4-.1-.15-.15-.1-.4l.2-2.15 5.2-5.15h-.05q.1-.1.2-.1m-10.3.7q.15.15.15.35v2.6l-1.3 1q-.15.1-.3.1-.2-.05-.3-.2l-.2-.25q-.15-.15-.1-.35 0-.15.15-.3l.8-.6v-2q0-.2.15-.35.1-.1.3-.1h.3q.2 0 .35.1Z"/></svg>