<svg xmlns="http://www.w3.org/2000/svg" viewBox="0 0 24 24"><path fill="#FFF" d="M11.9 20.7q-.65 0-1.1.45-.5.5-.5 1.15 0 .65.5 1.15.45.5 1.1.5.7 0 1.15-.5.5-.5.5-1.15 0-.65-.5-1.15-.45-.45-1.15-.45m1.6-19.1q0-.65-.5-1.15Q12.55 0 11.85 0q-.65 0-1.1.45-.5.5-.5 1.15 0 .65.5 1.15.45.5 1.1.5.7 0 1.15-.5.5-.5.5-1.15m-3.2 4.05q.4-.4.4-1.1 0-.7-.5-1.2-.45-.45-1.15-.45-.6 0-1.2.4l-4.6 4.6q-1.8 1.9-1.8 4.6v.1q0 2.7 1.8 4.6 1.9 1.9 4.6 1.9 2.8 0 4.7-1.9l4.6-4.7q.5-.4.5-1.1-.05-.65-.55-1.15-.45-.45-1.1-.4-.7 0-1.1.4l-4.65 4.65q-.95.95-2.35.95-1.4 0-2.3-.9-1-1-.95-2.35v-.1q-.05-1.35.95-2.25l4.7-4.6m10.3 10.4q1.9-1.9 1.9-4.7.05-2.65-1.9-4.6-1.9-1.9-4.6-1.9-2.7 0-4.6 1.9L6.75 11.4q-.45.45-.45 1.15t.45 1.15q.5.5 1.1.5.7 0 1.2-.5l4.6-4.6q1-1 2.35-.95 1.35-.05 2.35.95.9.9.9 2.3 0 1.3-.9 2.3l-4.7 4.7q-.5.4-.5 1.1.05.65.55 1.15.45.45 1.15.45.65-.05 1.15-.45l4.6-4.6Z"/></svg>