<svg xmlns="http://www.w3.org/2000/svg" viewBox="0 0 24 24"><path fill="#FFF" d="M21 21.75V5.25q0-.95-.65-1.6Q19.7 3 18.75 3H15q0-1.25-.9-2.1Q13.25 0 12 0T9.9.9Q9 1.75 9 3H5.25q-.95 0-1.6.65Q3 4.3 3 5.25v16.5q0 .95.65 1.6.65.65 1.6.65h13.5q.95 0 1.6-.65.65-.65.65-1.6m-2.6-16.5q.15 0 .25.1t.1.3V21.4q0 .15-.1.25t-.25.1H5.65q-.2 0-.3-.1-.1-.1-.1-.25V5.65q0-.2.1-.3.1-.1.3-.1H7.5v1.5q0 .3.2.55.125.1.25.15h8.1q.125-.05.25-.15.2-.25.2-.55v-1.5h1.9m-6.4-3q.3 0 .55.2.2.25.2.55 0 .3-.2.55-.25.2-.55.2-.3 0-.55-.2-.2-.25-.2-.55 0-.3.2-.55.25-.2.55-.2M7.65 18.2q-.2 0-.3.1-.1.1-.1.3v.75q0 .15.1.25t.3.1h8.75q.15 0 .25-.1t.1-.25v-.75q0-.2-.1-.3-.1-.1-.25-.1H7.65m-.3-3.15q-.1.1-.1.3v.75q0 .15.1.25t.3.1h8.75q.15 0 .25-.1t.1-.25v-.75q0-.2-.1-.3-.1-.1-.25-.1H7.65q-.2 0-.3.1m9.3-3.25q-.1-.1-.25-.1H7.65q-.2 0-.3.1-.1.1-.1.3v.75q0 .15.1.25t.3.1h8.75q.15 0 .25-.1t.1-.25v-.75q0-.2-.1-.3Z"/></svg>