<svg xmlns="http://www.w3.org/2000/svg" viewBox="0 0 24 24"><path fill="#FFF" d="M24 21.55q0-.45-.3-.8L19 16.1q-.15-.2-.35-.25-.2-.1-.45-.1h-.75q1-1.25 1.5-2.75.24746094-.71992188.35-1.45.08828125-.27421875.1-.55.1-.62128906.1-1.25 0-2-.75-3.8-.75-1.75-2.1-3.1-1.0734375-1.0734375-2.4-1.8-.34160156-.14628906-.7-.3-.49257813-.20527344-1-.35-1.34726563-.4-2.8-.4-2 0-3.8.75-1.75.75-3.1 2.1t-2.1 3.1Q0 7.75 0 9.75q0 .63515625.05 1.25.05917969.27714844.1.55.19550781 1.02929688.6 2 .75 1.75 2.1 3.1t3.1 2.1q1.8.75 3.8.75 1.41855469 0 2.8-.4.22558594-.07285156.45-.15.6484375-.21621094 1.25-.55.79023438-.38222656 1.5-.95v.75q0 .25.1.45t.25.35l4.65 4.65q.35.35.8.35.45 0 .8-.35l1.3-1.3q.35-.35.35-.8M14 5.5l.25.25q.66855469.76015625 1.05 1.65.45 1.15.45 2.35 0 .63203125-.15 1.25-.03066406.27636719-.1.55-.09296875.2765625-.2.55-.38144531.88984375-1.05 1.6-.1203125.1703125-.25.3-.66386719.62480469-1.45 1.05-.22011719.14042969-.45.25-1.15.45-2.35.45-1.2 0-2.35-.45-1.05-.5-1.9-1.3-.8-.85-1.3-1.9-.10703125-.2734375-.2-.55-.06933594-.27363281-.15-.55-.1-.61796875-.1-1.25 0-1.2.45-2.35.5-1.05 1.3-1.9.85-.8 1.9-1.3 1.15-.45 2.35-.45 1.2 0 2.35.45.22988281.10957031.45.2.78613281.47519531 1.45 1.1m-4.45 6.45q-.5 0-.9.4-.4.35-.4.9 0 .5.4.9.4.35.9.35.55 0 .9-.35.4-.4.4-.9 0-.55-.4-.9-.35-.4-.9-.4m2.4-6.1q-.45-.35-1.05-.6-.55-.2-1.15-.2-1.1 0-1.85.45-.75.4-1.35 1.25-.1.15-.05.3 0 .2.15.3l.8.6q.15.1.3.1.2-.05.3-.2.4-.45.7-.65.35-.25.85-.25.2 0 .45.05l.4.2q.45.3.45.65 0 .3-.25.55-.2.15-.7.4-.35.2-.5.3-.3.2-.5.4-.5.55-.5 1.3v.15q0 .2.1.35.15.1.35.1h1.35q.15 0 .3-.1.15-.15.15-.35v-.1q0-.25.35-.5.1-.05.35-.2.3-.2.45-.25.5-.35.8-.75Q13 8.6 13 7.9q0-.6-.3-1.15-.25-.5-.75-.9Z"/></svg>