<svg xmlns="http://www.w3.org/2000/svg" viewBox="0 0 24 24"><path fill="#FFF" d="M12.4 19.7h-.85v1.1l.45.45.4-.45v-1.1m.45-3.4h-1.7v2.55h1.7V16.3m-1.3-.9h.85v-1.1l-.4-.4-.45.4v1.1m8.65-7.9q-.8-3.05-2.6-5Q15.35 0 12.05 0t-5.6 2.5q-1.8 1.95-2.55 5h2.7q.6-2 1.7-3.25 1.5-1.7 3.75-1.7 3.2 0 4.85 3.55.35.65.6 1.4h2.7m2.75 15.45q.25-.45.2-1l-.75-6.7-8.7 2.3v1.75q0 .15-.1.3-.15.1-.3.1V21q0 .2-.15.3l-.85.85q-.15.15-.3.15-.2 0-.3-.15l-.85-.85q-.15-.1-.15-.3v-1.3q-.15 0-.3-.1-.1-.15-.1-.3v-1.75l-8.7-2.3-.75 6.7q-.05.55.2 1 .2.5.65.75.5.3 1.3.3h18q.8 0 1.3-.3.45-.25.65-.75m.85-14.2q-.2-.2-.5-.2H.65q-.25 0-.45.2t-.2.5v4.55l10.3 2.85v-.8q0-.15.1-.3.15-.15.3-.15v-1.25q0-.2.15-.3l.85-.85q.1-.15.3-.15.2 0 .3.15l.85.85q.15.1.15.3v1.25q.1 0 .2.1.1.05.2.2v.95L24 13.8V9.25q0-.3-.2-.5Z"/></svg>