<svg xmlns="http://www.w3.org/2000/svg" viewBox="0 0 24 24"><path fill="#FFF" d="M11.55 10.2q1.1 0 1.6.55.5.65.5 1.95v1.45q-3.9.3-5.85 1.6-1.8 1.3-1.8 4 0 1.95 1.1 3.2Q8.15 24 9.95 24q1.4 0 2.25-.5.95-.55 1.6-1.8.2 1.25.55 1.7.35.55.95.55t1.35-.2q.95-.35 1.4-.8-.45-.8-.65-1.85-.15-1.1-.15-3.55V12.7q0-2.8-1.35-4.2Q14.55 7 12.1 7q-1.7 0-3.45.7-1.6.75-2.6 1.7.35 1.15.9 1.85.4.7.85.7.2 0 .35-.05 1.15-.9 1.9-1.3t1.5-.4m-1.5 10.45q-.4-.45-.4-1.3 0-1.45 1-2.15 1.05-.7 3-.85v2.35q-.5 1.25-1.15 1.85-.6.7-1.35.7-.7 0-1.1-.6M15.9.5q-.05-.2-.3-.35-.2-.15-.5-.15H8.95q-.35 0-.5.15-.25.15-.3.35-.1.1-.1.15-.05.15 0 .4v.15q.1.15.25.3l3.05 3.15q.3.2.65.2.4 0 .6-.2l3.1-3.15q.2-.15.3-.45 0-.3-.1-.55Z"/></svg>