<svg xmlns="http://www.w3.org/2000/svg" viewBox="0 0 24 24"><path fill="#333" d="M8.25 5.25q.25 0 .45-.15.15-.1.25-.3.1-.2.05-.45-.05-.2-.2-.4L5.05.2Q4.8 0 4.5 0q-.3 0-.55.2L.2 3.95q-.15.2-.2.4-.05.25.05.45t.25.3q.2.15.45.15H3v18q0 .3.2.55.25.2.55.2h1.5q.3 0 .55-.2.2-.25.2-.55v-18h2.25m10.4-2.05q.2-.3.2-.65V.85q0-.35-.2-.6Q18.35 0 18 0h-3.05q-.3 0-.6.25-.25.25-.25.6v1.7q0 .35.25.65.3.25.6.25H18q.35 0 .65-.25M24 23.15v-1.7q0-.35-.2-.65-.3-.25-.65-.25H9.8q-.3 0-.6.25-.25.3-.25.65v1.7q0 .35.25.6.3.25.6.25h13.35q.35 0 .65-.25.2-.25.2-.6m-1.7-8.6q0-.3-.25-.6-.25-.25-.6-.25h-9.9q-.35 0-.65.25-.2.3-.2.6v1.75q0 .35.2.6.3.25.65.25h9.9q.35 0 .6-.25t.25-.6v-1.75m-1.7-5.1V7.7q0-.35-.25-.6-.3-.25-.65-.25h-6.45q-.35 0-.65.25-.2.25-.2.6v1.75q0 .3.2.6.3.25.65.25h6.45q.35 0 .65-.25.25-.3.25-.6Z"/></svg>