<svg xmlns="http://www.w3.org/2000/svg" viewBox="0 0 24 24"><path fill="#090" d="M15.35 1.7v-1q0-.35-.2-.5-.25-.2-.5-.2H9.3q-.1 0-.2.05-.15.05-.3.15-.15.15-.15.5v1q-.05.25.15.5l.3.2h.5v1.65h-.2V5.5h.2v1.65h-.3q-.1 0-.2.05-.15.05-.3.15-.15.25-.15.5v1q0 .35.15.5l.3.2h5.55q.25 0 .5-.2.2-.15.2-.5v-1q0-.25-.2-.5-.25-.2-.5-.2h-.25V2.4h.25q.25 0 .5-.2.2-.25.2-.5m-8.6 2.15q0-.45-.25-.7-.25-.25-.7-.25H.95q-.35 0-.65.25-.3.25-.3.7V5.7q0 .45.25.7.35.25.7.25H5.8q.45 0 .7-.25.25-.25.25-.7v-.2H9.4V4.05l-2.65.05v-.25m6.45 8.25v-.7q0-.2-.1-.35-.1-.15-.25-.15H11.3q-.25 0-.35.15-.1.15-.1.35v.7q-2.3.1-3.25.85-1 .85-1 2.25 0 1.1.95 1.9.9.8 3.3 1.35v2.3h-.05q-1.25 0-1.6-.75-.4-.65-1.05-.65h-.9q-.25 0-.45.15-.3.25-.3.6 0 1.2 1.2 2.05 1.35.75 2.8.75h.35v.7q0 .2.1.3.1.1.35.1h1.55q.15 0 .25-.1t.1-.3v-.7q2.45-.05 3.35-.85.95-.85.95-2.25 0-1.5-1.35-2.2-1.05-.7-2.95-1.05v-2.4q1.1.2 1.4.8.3.65 1.05.65h.8q.25 0 .5-.15.3-.2.3-.7 0-1.1-1.25-1.85-1.2-.8-2.8-.8m-2.45 2.05h.1v1.9Q9.4 15.6 9.4 15.1q0-.95 1.35-.95m2.45 6.6v-1.8q1.5.4 1.5.95 0 .85-1.25.85h-.25Z"/></svg>