<svg xmlns="http://www.w3.org/2000/svg" viewBox="0 0 24 24"><path fill="indigo" d="M22.5 5.25q0-.95-.65-1.6Q21.2 3 20.25 3H18V.75q0-.3-.2-.55-.25-.2-.55-.2h-1.5q-.3 0-.55.2-.2.25-.2.55V3H9V.75q0-.3-.2-.55-.25-.2-.55-.2h-1.5q-.3 0-.55.2-.2.25-.2.55V3H3.75q-.95 0-1.6.65-.65.65-.65 1.6V7.5h21V5.25m0 16.5V9h-21v12.75q0 .95.65 1.6.65.65 1.6.65h16.5q.95 0 1.6-.65.65-.65.65-1.6M11.05 12h1.9q.2 0 .4.15.15.2.15.4v1.9q0 .2-.15.4-.2.15-.4.15h-1.9q-.2 0-.4-.15-.15-.2-.15-.4v-1.9q0-.2.15-.4.2-.15.4-.15m5.6.15q.2-.15.4-.15h1.9q.2 0 .4.15.15.2.15.4v1.9q0 .2-.15.4-.2.15-.4.15h-1.9q-.2 0-.4-.15-.15-.2-.15-.4v-1.9q0-.2.15-.4m-12 0q.2-.15.4-.15h1.9q.2 0 .4.15.15.2.15.4v1.9q0 .2-.15.4-.2.15-.4.15h-1.9q-.2 0-.4-.15-.15-.2-.15-.4v-1.9q0-.2.15-.4m2.7 6q.15.2.15.4v1.9q0 .2-.15.4-.2.15-.4.15h-1.9q-.2 0-.4-.15-.15-.2-.15-.4v-1.9q0-.2.15-.4.2-.15.4-.15h1.9q.2 0 .4.15m9.15.4q0-.2.15-.4.2-.15.4-.15h1.9q.2 0 .4.15.15.2.15.4v1.9q0 .2-.15.4-.2.15-.4.15h-1.9q-.2 0-.4-.15-.15-.2-.15-.4v-1.9m-5.85-.4q.2-.15.4-.15h1.9q.2 0 .4.15.15.2.15.4v1.9q0 .2-.15.4-.2.15-.4.15h-1.9q-.2 0-.4-.15-.15-.2-.15-.4v-1.9q0-.2.15-.4Z"/></svg>