<svg xmlns="http://www.w3.org/2000/svg" viewBox="0 0 24 24"><path fill="#FFF" d="M20.65 23.65q.35-.3.35-.75V7.5h-6.35q-.5 0-.8-.35-.35-.3-.35-.75V0H4.15q-.5 0-.8.35-.35.3-.35.8V22.9q0 .45.35.75.3.35.8.35H19.9q.45 0 .75-.35M10.7 9.15q.35-.15.75-.15t.7.25q.3.3.4.75.15.55 0 1.5-.05.5-.3 1.55.35.85.8 1.45.5.6 1.2 1.05 1.05-.15 1.8-.1 1.2 0 1.65.45.2.2.3.55.05.35-.05.65-.1.35-.4.6-.3.25-.8.25-.55 0-1.4-.25-.8-.25-1.6-.7-.7.15-1.8.5-1.25.4-1.9.6-.85 1.55-1.55 2.2-.65.7-1.3.7-.2 0-.5-.1-.3-.15-.5-.35-.6-.75.45-1.8.8-.75 2.1-1.4.4-.7 1-1.9.5-1.1.95-2.15-.35-1.25-.45-2.05-.1-.95.05-1.55.1-.35.4-.55m.8 7.45q.85-.35 1.55-.45-.45-.35-.85-.85-.4-.5-.75-1.1-.7 1.85-1.35 2.95.45-.15 1.4-.55m5.35.35q.3 0 .35-.05.1-.05.05-.15-.05-.1-.25-.15-.55-.2-1.8-.15 1.1.5 1.65.5m-9 2q-.65.65-.8 1.1 0 .05.1-.05.15-.05.3-.25.6-.55 1.2-1.55-.15.15-.8.75m3.5-8.3q0 .85.15 1.35.25-.35.2-1.25 0-.95-.25-.95-.15 0-.1.85M20.9 5.3q-.05-.2-.25-.4L16.1.35q-.2-.2-.4-.25-.2-.1-.4-.1H15v6h6v-.3q0-.2-.1-.4Z"/></svg>