<svg xmlns="http://www.w3.org/2000/svg" viewBox="0 0 24 24"><path fill="#FFF" d="M9.65 15.4q-.15.25-.15.6v7.65q.15.4.55.35H11q.3 0 .45-.15.15-.25.1-.45v-6.7q0-.15.15-.2.85-.25 1.65-.25 1.95 0 1.95 1.75v5.4q0 .25.1.45.15.15.45.15H17q.45-.1.35-.6v-5.45q.1-1.55-.95-2.65-1.15-1.05-2.75-.9-1.75-.05-3.45.6-.4.15-.55.4M24 14.95q0-.2-.15-.45-.15-.1-.4-.1h-.55q-1.7 0-3.3.55-.35.05-.55.35-.15.35-.15.65v7.7q.05.15.2.25.15.15.35.1h1q.25 0 .4-.15.1-.2.1-.45v-6.7q0-.05.05-.15.05-.05.15-.05.75-.25 1.65-.25.75.1.85 0 .45-.05.35-.5v-.8M8.15 17.9q.1-1.55-1.05-2.6-1.35-.9-3-.9t-3 .9q-1.15 1-1.1 2.6v2.6q-.05 1.6 1.1 2.6 1.35.9 3 .9t3-.9q1.15-1.05 1.05-2.6v-2.6M5.6 16.65q.55.45.5 1.25v2.6q.05.8-.5 1.25-.7.5-1.5.45-.9.05-1.5-.45-.55-.45-.55-1.25v-2.6q-.05-.8.55-1.25.6-.5 1.5-.45.8-.05 1.5.45m-.85-5.95q-.35-.35-.9-.35t-.95.35q-.4.4-.4.95 0 .6.4 1 .4.35.95.35.55 0 .9-.35.45-.45.45-1t-.45-.95m8.8-5.45q-1.3-.6-2.65-.05-1.35.55-1.85 1.85-.6 1.25-.05 2.6.55 1.35 1.85 1.95 1.3.55 2.6 0 1.35-.55 1.95-1.85.55-1.3 0-2.65-.55-1.3-1.85-1.85M15.6 2.3q.45 0 .85-.35.3-.35.3-.8 0-.45-.3-.8-.4-.35-.85-.35-.45 0-.8.35-.35.35-.35.8 0 .45.35.8.35.35.8.35m5.9 9.2q0-.7-.5-1.2t-1.2-.5q-.7 0-1.25.5-.5.55-.5 1.2 0 .7.5 1.2t1.25.5q.7 0 1.2-.5t.5-1.2Z"/></svg>