<svg xmlns="http://www.w3.org/2000/svg" viewBox="0 0 24 24"><path fill="#32BCAD" d="M6.9 18.1q-.65.25-1.25.25H4.9l4.55 4.55q1.05 1.1 2.5 1.1 1.55 0 2.65-1.1l4.55-4.55h-.4q-.7 0-1.35-.25-.65-.3-1.15-.8l-3.65-3.55q-.2-.2-.45-.2t-.45.2l-3.6 3.6q-.5.45-1.2.75M17.4 5.95q.65-.25 1.35-.25h.4L14.6 1.05Q13.5 0 11.95 0q-1.45 0-2.5 1.05L4.9 5.6h.75q.6 0 1.25.25.7.3 1.2.85l3.6 3.6q.2.2.45.2t.45-.2l3.65-3.6q.5-.55 1.15-.75m6.6 6.1q0-1.55-1.05-2.65L20.2 6.7h-1.45q-.55 0-1 .15-.45.2-.8.55l-3.55 3.65q-.5.45-1.25.45-.7 0-1.15-.45L7.35 7.4q-.35-.35-.8-.55-.45-.15-.9-.15H3.8L1.1 9.4Q0 10.5 0 12.05q0 1.45 1.1 2.5l2.7 2.8q.1-.05.2-.05h1.65q.45 0 .9-.2t.8-.55l3.65-3.6q.45-.45 1.15-.45.75 0 1.25.45l3.55 3.6q.35.35.8.55.45.2 1 .2h1.3q.05 0 .15.05l2.75-2.8Q24 13.5 24 12.05Z"/></svg>