<svg xmlns="http://www.w3.org/2000/svg" viewBox="0 0 24 24"><path fill="#FFF" d="M14.75 9.1q-1.85-1.8-4.4-2.8-2.6-1-5.65-1.05L.05 23.05q-.1.3.05.55.15.3.45.35.2.1.4 0l17.8-4.9q-.1-3.05-1.15-5.6-1-2.5-2.85-4.35m-7.55.7q.45-.4 1.05-.4.6 0 1.05.4.45.45.45 1.1 0 .6-.45 1.05-.45.45-1.05.45-.6 0-1.05-.45-.45-.45-.45-1.05 0-.65.45-1.1m-.15 7.15q.45.45.45 1.05 0 .6-.45 1.05-.45.45-1.05.45-.6 0-1.05-.45Q4.5 18.6 4.5 18q0-.6.45-1.05.45-.45 1.05-.45.6 0 1.05.45m7.15-2.25q.45.45.45 1.05 0 .6-.45 1.05-.45.45-1.05.45-.65 0-1.1-.45-.4-.45-.4-1.05 0-.6.4-1.05.45-.45 1.1-.45.6 0 1.05.45m8.7 3.2q.55-.15.85-.65.3-.45.25-1.05-.35-3.1-1.8-6-1.4-2.75-3.65-4.95T13.5 1.7Q10.6.3 7.45 0q-.6-.05-1.05.25-.45.35-.6.9L5.1 3.8q3.25.05 6 1.2 2.7 1.05 4.7 3.05 2 1.95 3.15 4.6 1.1 2.75 1.25 6l2.7-.75Z"/></svg>