<svg xmlns="http://www.w3.org/2000/svg" viewBox="0 0 24 24"><path fill="#FFF" d="M21 5.25q0-.95-.65-1.6Q19.7 3 18.75 3H15q0-1.25-.9-2.1Q13.25 0 12 0T9.9.9Q9 1.75 9 3H5.25q-.95 0-1.6.65Q3 4.3 3 5.25v16.5q0 .95.65 1.6.65.65 1.6.65h13.5q.95 0 1.6-.65.65-.65.65-1.6V5.25m-2.35.1q.1.1.1.3V21.4q0 .15-.1.25t-.25.1H5.65q-.2 0-.3-.1-.1-.1-.1-.25V5.65q0-.2.1-.3.1-.1.3-.1H7.5v1.5q0 .3.2.55.15.1.3.15h8.05q.15-.05.25-.15.2-.25.2-.55v-1.5h1.9q.15 0 .25.1M12 2.25q.3 0 .55.2.2.25.2.55 0 .3-.2.55-.25.2-.55.2-.3 0-.55-.2-.2-.25-.2-.55 0-.3.2-.55.25-.2.55-.2Z"/></svg>