<svg xmlns="http://www.w3.org/2000/svg" viewBox="0 0 24 24"><path fill="#333" d="M21 5.25q0-.95-.65-1.6Q19.7 3 18.75 3H15q0-1.25-.9-2.1Q13.25 0 12 0T9.9.9Q9 1.75 9 3H5.25q-.95 0-1.6.65Q3 4.3 3 5.25v16.5q0 .95.65 1.6.65.65 1.6.65h13.5q.95 0 1.6-.65.65-.65.65-1.6V5.25M16.2 6q.15 0 .2.1.1.05.1.2v.9q0 .15-.1.2-.05.1-.2.1H7.8q-.15 0-.2-.1-.1-.05-.1-.2v-.9q0-.15.1-.2.05-.1.2-.1h8.4m-3.4-3.8q.35.35.35.8 0 .45-.35.8-.35.35-.8.35-.45 0-.8-.35-.3-.35-.3-.8 0-.45.3-.8.35-.3.8-.3.45 0 .8.3m.25 7.95q.6-.25 1.25-.25.7 0 1.3.25.65.25 1.1.7.5.5.75 1.15.25.6.25 1.25 0 .7-.25 1.3-.25.6-.75 1.1l-.8.85-.2.1q-.1 0-.2-.05-.1 0-.15-.1-.05-.1-.05-.2-.05-.6-.25-1.15v-.2l.1-.2.3-.3q.2-.2.35-.5.1-.3.1-.6.05-.7-.45-1.15-.2-.25-.5-.35-.3-.15-.6-.15-.35 0-.65.15-.3.1-.5.35l-1.5 1.5q-.25.2-.35.5-.15.3-.15.6 0 .35.15.6.1.3.35.55l.2.2q.1.05.15.1.05.1.05.15 0 .2-.1.35-.05.2-.2.35l-.45.45q-.1.1-.2.1-.15 0-.25-.05-.25-.2-.45-.4-.5-.5-.75-1.1-.25-.65-.25-1.3t.25-1.25q.25-.65.75-1.1v-.05l1.5-1.5q.45-.45 1.1-.7m-4.4 4.55q.1.1.1.2 0 .6.2 1.2.05.1 0 .2 0 .1-.1.15l-.3.3q-.2.25-.35.55-.1.25-.1.6 0 .3.1.6t.35.5q.2.25.55.4.25.1.6.1.3 0 .6-.1.3-.15.5-.35l1.5-1.5q.25-.25.35-.55.15-.3.15-.6t-.15-.6q-.1-.3-.35-.55-.1-.1-.2-.15-.1-.05-.1-.15-.05-.05-.05-.15 0-.2.05-.35.05-.2.2-.3l.45-.5q.1-.05.25-.1.1 0 .2.1.25.15.5.35.45.5.7 1.15.25.6.25 1.25t-.25 1.3q-.25.6-.7 1.1l-1.5 1.5q-.5.5-1.15.75-.6.25-1.25.25t-1.3-.25q-.6-.25-1.1-.75-.5-.5-.75-1.1-.25-.65-.25-1.3t.25-1.25q.25-.65.75-1.15l.8-.8q.1-.1.2-.1.1-.05.2 0t.15.1Z"/></svg>