<svg xmlns="http://www.w3.org/2000/svg" viewBox="0 0 24 24"><path fill="#333" d="M21 5.25q0-.95-.65-1.6Q19.7 3 18.75 3H15q0-1.25-.9-2.1Q13.25 0 12 0T9.9.9Q9 1.75 9 3H5.25q-.95 0-1.6.65Q3 4.3 3 5.25v16.5q0 .95.65 1.6.65.65 1.6.65h13.5q.95 0 1.6-.65.65-.65.65-1.6V5.25M12.8 2.2q.35.35.35.8 0 .45-.35.8-.35.35-.8.35-.45 0-.8-.35-.3-.35-.3-.8 0-.45.3-.8.35-.3.8-.3.45 0 .8.3M16.2 6q.15 0 .2.1.1.05.1.2v.9q0 .15-.1.2-.0484375.096875-.2.1H7.8q-.1515625-.003125-.2-.1-.1-.05-.1-.2v-.9q0-.15.1-.2.05-.1.2-.1h8.4m2.55 6.05q.4 0 .9.2v1.6q-.45-.15-.8-.15-.65 0-1.05.55-.4.5-.4 1.45t.4 1.45q.4.55 1.05.55.35 0 .8-.15v1.6q-.5.2-.9.2-1.35 0-2.15-1-.8375-.98515625-.85-2.65 0-1.65.85-2.65.8-1 2.15-1m-14.4.2H5.9q.8 0 1.5.35t1.05 1.1q.4.75.4 2t-.4 2q-.35.75-1.05 1.1-.7.35-1.5.35H4.35v-6.9m10.4 3.45q0 1.7-.65 2.7-.65.95-1.85.95-1.25 0-1.9-.95-.640625-.98554687-.65-2.7 0-1.7.65-2.7.65-.95 1.9-.95 1.2 0 1.85.95.65 1 .65 2.7m-2.55-2.05q-.4 0-.65.4-.2.4-.2 1.65.00390625 1.2578125.2 1.65.25.4.65.4t.7-.4q.2-.4.2-1.65t-.2-1.65q-.3-.4-.7-.4m-5.3.55q-.3-.45-1-.5v4q.7-.05 1-.5.3-.45.3-1.45v-.1q0-1-.3-1.45Z"/></svg>