<svg xmlns="http://www.w3.org/2000/svg" viewBox="0 0 24 24"><path fill="#333" d="M21 5.25q0-.95-.65-1.6Q19.7 3 18.75 3H15q0-1.25-.9-2.1Q13.25 0 12 0T9.9.9Q9 1.75 9 3H5.25q-.95 0-1.6.65Q3 4.3 3 5.25v16.5q0 .95.65 1.6.65.65 1.6.65h13.5q.95 0 1.6-.65.65-.65.65-1.6V5.25M16.2 6q.15 0 .2.1.1.05.1.2v.9q0 .15-.1.2-.05.1-.2.1H7.8q-.15 0-.2-.1-.1-.05-.1-.2v-.9q0-.15.1-.2.05-.1.2-.1h8.4m-3.4-3.8q.35.35.35.8 0 .45-.35.8-.35.35-.8.35-.45 0-.8-.35-.3-.35-.3-.8 0-.45.3-.8.35-.3.8-.3.45 0 .8.3m-.8 8.05q2.05 0 3.5 1.5 1.5 1.45 1.5 3.5 0 2.1-1.5 3.55-1.45 1.45-3.5 1.45T8.45 18.8Q7 17.35 7 15.25q0-2.05 1.45-3.5 1.5-1.5 3.55-1.5m-3.3 5q0 1.35.95 2.35 1 .95 2.35.95 1.4 0 2.4-.95.95-1 .95-2.35 0-1.4-.95-2.4-1-.95-2.4-.95-1.35 0-2.35.95-.95 1-.95 2.4m2.7.05v-2q0-.2.15-.35.1-.1.3-.1h.3q.2 0 .35.1.15.15.15.35v2.6l-1.3 1q-.15.1-.3.1-.2-.05-.3-.2l-.2-.25q-.15-.15-.1-.35 0-.15.15-.3l.8-.6Z"/></svg>