<svg xmlns="http://www.w3.org/2000/svg" viewBox="0 0 24 24"><path fill="#FFF" d="M21 5.25q0-.95-.65-1.6Q19.7 3 18.75 3H15q0-1.25-.9-2.1Q13.25 0 12 0T9.9.9Q9 1.75 9 3H5.25q-.95 0-1.6.65Q3 4.3 3 5.25v16.5q0 .95.65 1.6.65.65 1.6.65h13.5q.95 0 1.6-.65.65-.65.65-1.6V5.25M12.8 2.2q.35.35.35.8 0 .45-.35.8-.35.35-.8.35-.45 0-.8-.35-.3-.35-.3-.8 0-.45.3-.8.35-.3.8-.3.45 0 .8.3M16.2 6q.15 0 .2.1.1.05.1.2v.9q0 .15-.1.2-.01464844.02929688-.05.05-.04394531.05-.15.05H7.8q-.10605469 0-.15-.05-.03535156-.02070312-.05-.05-.1-.05-.1-.2v-.9q0-.15.1-.2.05-.1.2-.1h8.4m-4.15 5.85H13q.2 0 .35.15.15.1.15.35V19q0 .2-.15.35-.15.15-.35.15h-1.75q-.2 0-.45-.15t-.35-.35l-2.9-4.6V19q0 .2-.2.35-.15.15-.3.15H6.1q-.25 0-.4-.15-.1-.15-.1-.35v-6.65q0-.15.1-.35.15-.15.4-.15h1.5q.2 0 .45.15.2.2.3.35l3.25 4.95v-4.95q0-.25.1-.35.2-.15.35-.15m4.55-.05h.15q1.7 0 1.7 1.75 0 1.7-1.7 1.7h-.15q-1.7 0-1.7-1.7 0-1.75 1.7-1.75m1.5 4.6q.15 0 .25.1.1.05.1.2v.7q0 .1-.1.2-.1.05-.25.05h-2.85q-.15 0-.25-.05-.1-.1-.1-.2v-.7q0-.15.1-.2.1-.1.25-.1h2.85m-.9-3.55q-.2-.25-.55-.25-.3 0-.55.25-.2.2-.2.7 0 .5.2.7.25.25.55.25.35 0 .55-.25.25-.2.25-.7 0-.5-.25-.7Z"/></svg>