<svg xmlns="http://www.w3.org/2000/svg" viewBox="0 0 24 24"><path fill="#FFF" d="M21 5.25q0-.95-.65-1.6Q19.7 3 18.75 3H15q0-1.25-.9-2.1Q13.25 0 12 0T9.9.9Q9 1.75 9 3H5.25q-.95 0-1.6.65Q3 4.3 3 5.25v16.5q0 .95.65 1.6.65.65 1.6.65h13.5q.95 0 1.6-.65.65-.65.65-1.6V5.25M16.2 6q.15 0 .2.1.1.05.1.2v.9q0 .15-.1.2-.05.1-.2.1H7.8q-.15 0-.2-.1-.1-.05-.1-.2v-.9q0-.15.1-.2.05-.1.2-.1h8.4m-3.4-3.8q.35.35.35.8 0 .45-.35.8-.35.35-.8.35-.45 0-.8-.35-.3-.35-.3-.8 0-.45.3-.8.35-.3.8-.3.45 0 .8.3m4.5 8.1q.55 0 .9.35t.35.85v9q0 .5-.35.9-.35.35-.9.35H6.7q-.55 0-.9-.35-.35-.4-.35-.9v-9q0-.5.35-.85t.9-.35h10.6m-4.5 9.8h4.1v-2.45h-4.1v2.45m4.1-4.1v-2.45h-4.1V16h4.1m-9.8-2.45V16h4.1v-2.45H7.1m0 4.1v2.45h4.1v-2.45H7.1Z"/></svg>