<svg xmlns="http://www.w3.org/2000/svg" viewBox="0 0 24 24"><path fill="#333" d="M21 5.25q0-.95-.65-1.6Q19.7 3 18.75 3H15q0-1.25-.9-2.1Q13.25 0 12 0T9.9.9Q9 1.75 9 3H5.25q-.95 0-1.6.65Q3 4.3 3 5.25v16.5q0 .95.65 1.6.65.65 1.6.65h13.5q.95 0 1.6-.65.65-.65.65-1.6V5.25M16.2 6q.15 0 .2.1.1.05.1.2v.9q0 .15-.1.2-.05.1-.2.1H7.8q-.15 0-.2-.1-.1-.05-.1-.2v-.9q0-.15.1-.2.05-.1.2-.1h8.4m-3.4-3.8q.35.35.35.8 0 .45-.35.8-.35.35-.8.35-.45 0-.8-.35-.3-.35-.3-.8 0-.45.3-.8.35-.3.8-.3.45 0 .8.3m-2 9.3q.15-.05.25 0l.8.5q.1.05.15.15 0 .1-.05.2l-4.2 7.3q-.1.1-.2.15-.1.05-.2-.05l-.8-.45q-.1-.05-.15-.15 0-.15.05-.25l4.2-7.3q.05-.1.15-.1m6.65.5q.1.05.15.15.05.1-.05.2l-4.2 7.3q-.05.1-.15.15-.15.05-.25-.05l-.8-.45q-.1-.05-.15-.15 0-.15.05-.25l4.2-7.3q.1-.1.2-.1.1-.05.2 0l.8.5Z"/></svg>