<svg xmlns="http://www.w3.org/2000/svg" viewBox="0 0 24 24"><path fill="#333" d="M21 5.25q0-.95-.65-1.6Q19.7 3 18.75 3H15q0-1.25-.9-2.1Q13.25 0 12 0T9.9.9Q9 1.75 9 3H5.25q-.95 0-1.6.65Q3 4.3 3 5.25v16.5q0 .95.65 1.6.65.65 1.6.65h13.5q.95 0 1.6-.65.65-.65.65-1.6V5.25M16.2 6q.15 0 .2.1.1.05.1.2v.9q0 .15-.1.2-.05.1-.2.1H7.8q-.15 0-.2-.1-.1-.05-.1-.2v-.9q0-.15.1-.2.05-.1.2-.1h8.4m-3.4-3.8q.35.35.35.8 0 .45-.35.8-.35.35-.8.35-.45 0-.8-.35-.3-.35-.3-.8 0-.45.3-.8.35-.3.8-.3.45 0 .8.3m1.8 8.15q.1.1.1.25v2.35h2.35q.15 0 .25.1t.1.25v1.1q0 .15-.1.25t-.25.1H14.7v1.8h2.35q.15 0 .25.1t.1.25V18q0 .15-.1.25t-.25.1H14.7v2.35q0 .15-.1.25t-.25.1h-1.1q-.15 0-.25-.1t-.1-.25v-2.35h-1.8v2.35q0 .15-.1.25t-.25.1h-1.1q-.15 0-.25-.1t-.1-.25v-2.35H6.95q-.15 0-.25-.1T6.6 18v-1.1q0-.15.1-.25t.25-.1H9.3v-1.8H6.95q-.15 0-.25-.1t-.1-.25v-1.1q0-.15.1-.25t.25-.1H9.3V10.6q0-.15.1-.25t.25-.1h1.1q.15 0 .25.1t.1.25v2.35h1.8V10.6q0-.15.1-.25t.25-.1h1.1q.15 0 .25.1m-1.7 4.4h-1.8v1.8h1.8v-1.8Z"/></svg>