<svg xmlns="http://www.w3.org/2000/svg" viewBox="0 0 24 24"><path fill="#FFF" d="M1.95 22.05q.45.45 1.05.45h7.5V15h-9v6q0 .6.45 1.05m20.1 0q.45-.45.45-1.05v-6h-9v7.5H21q.6 0 1.05-.45M22.5 7.5h-2q.5-.9.5-1.85 0-.85-.35-1.65-.3-.7-.85-1.3-.6-.55-1.3-.85-.8-.35-1.6-.35-1.45 0-2.55.8-1.05.7-2.3 2.4Q10.8 3 9.75 2.3q-1.1-.8-2.55-.8-.8 0-1.6.35-.7.3-1.3.85-.55.6-.9 1.3-.3.8-.3 1.65 0 .95.45 1.85H1.5q-.6 0-1.05.45Q0 8.4 0 9v3.75q0 .3.2.55.25.2.55.2h22.5q.3 0 .55-.2.2-.25.2-.55V9q0-.6-.45-1.05-.45-.45-1.05-.45m-5.6-3.75q.75 0 1.3.55t.55 1.35q0 .75-.55 1.3t-1.3.55h-4.05q1.65-2.45 2.55-3.2.4-.35.8-.45.25-.1.7-.1m-9 .1q.35.1.8.45.9.75 2.55 3.2H7.2q-.75 0-1.3-.55t-.55-1.3q0-.8.55-1.35t1.3-.55q.45 0 .7.1Z"/></svg>