<svg xmlns="http://www.w3.org/2000/svg" viewBox="0 0 24 24"><path fill="#FC0" d="M24 8.25q0-.95-.65-1.6Q22.7 6 21.75 6h-9l-3-3h-7.5q-.7453125 0-1.3.4-.15996094.10996094-.3.25Q0 4.3 0 5.25v13.5q0 .95.65 1.6.65.65 1.6.65h19.5q.95 0 1.6-.65.65-.65.65-1.6V8.25m-3.4 2.65q0 .55-.2 1-.2.45-.55.85-.4.35-.85.55-.45.2-1 .2-.5 0-1-.2-.45-.2-.8-.55-.35-.4-.55-.85-.2-.45-.2-1 0-.5.2-1 .2-.45.55-.8.35-.35.8-.55.5-.2 1-.2.55 0 1 .2.45.2.85.55.35.35.55.8.2.5.2 1m1.9 5.95v.8q0 .45-.25.7-.3.3-.7.3H14.5q-.45 0-.7-.3-.3-.25-.3-.7v-.8q0-.55.25-1.05.15-.5.55-.9.35-.35.85-.55.5-.2 1.05-.2h.35q.7.3 1.45.3.8 0 1.45-.3h.35q.55 0 1.05.2t.85.55q.4.4.6.9.2.5.2 1.05m-9.2-8q.05-.05.15-.05.1 0 .2.05l.8.8q.05.1.05.2t-.05.15l-1.35 1.3 1.35 1.3q.05.05.05.15 0 .1-.05.2l-.8.8q-.1.05-.2.05t-.15-.05L12 12.4l-1.3 1.35q-.05.05-.15.05-.1 0-.2-.05l-.8-.8q-.05-.1-.05-.2t.05-.15l1.35-1.3L9.55 10q-.05-.05-.05-.15 0-.1.05-.2l.8-.8q.1-.05.2-.05t.15.05L12 10.2l1.3-1.35m-9.1.25q.35-.35.8-.55.5-.2 1-.2.55 0 1 .2.45.2.85.55.35.35.55.8.2.5.2 1 0 .55-.2 1-.2.45-.55.85-.4.35-.85.55-.45.2-1 .2-.5 0-1-.2-.45-.2-.8-.55-.35-.4-.55-.85-.2-.45-.2-1 0-.5.2-1 .2-.45.55-.8m3.6 5.05q.55 0 1.05.2t.85.55q.4.4.6.9.2.5.2 1.05v.8q0 .45-.25.7-.3.3-.7.3H2.5q-.45 0-.7-.3-.3-.25-.3-.7v-.8q0-.55.25-1.05.15-.5.55-.9.35-.35.85-.55.5-.2 1.05-.2h.35q.7.3 1.45.3.8 0 1.45-.3h.35Z"/></svg>