<svg xmlns="http://www.w3.org/2000/svg" viewBox="0 0 24 24"><path fill="#333" d="M23.35 6.65Q22.7 6 21.75 6h-9l-3-3h-7.5q-.9 0-1.6.65-.65.7-.65 1.6v13.5q0 .95.65 1.6.7.65 1.6.65h19.5q.95 0 1.6-.65.65-.65.65-1.6V8.25q0-.9-.65-1.6M11.3 10.5q.1 0 .2.05l5.15 5.15.2 2.15q.05.25-.1.4-.15.15-.4.1l-2.15-.2L9.05 13Q9 12.9 9 12.8q0-.05.05-.15l2.1-2.1q.05-.05.15-.05m-.55-.7q.05.05.05.15 0 .1-.05.15L8.6 12.25q-.05.05-.15.05-.1 0-.15-.05l-.9-.9q-.25-.25-.25-.65 0-.35.25-.65L8.55 8.9q.3-.25.65-.25.4 0 .65.25l.9.9Z"/></svg>