<svg xmlns="http://www.w3.org/2000/svg" viewBox="0 0 24 24"><path fill="#090" d="M22.7 16q-.5 0-.9.3l-3.85 3.1q-.35.3-.8.45-.45.15-.9.15h-4.9q-.3 0-.5-.2t-.2-.5q0-.25.2-.45t.5-.2h3.25q.5 0 .9-.3t.5-.8q.1-.65-.3-1.1-.4-.45-1.05-.45H8q-.85 0-1.65.25-.8.3-1.45.85L3 18.65H.65q-.25 0-.45.2t-.2.45v4q0 .3.2.5t.45.2h14.9q.45 0 .85-.15.45-.15.8-.45l6.3-5.05q.5-.35.5-1 0-.6-.45-1.05-.35-.3-.85-.3m-5-11.8q0-1.2-1.35-2-1.3-.9-3.05-.9V.55q0-.2-.1-.4-.1-.15-.3-.15h-1.65q-.3 0-.4.15-.1.2-.1.4v.75q-2.5.1-3.55.95-1.1.9-1.1 2.45 0 1.2 1.05 2.05.95.9 3.6 1.5v2.5h-.05q-1.4 0-1.75-.8Q8.5 9.2 7.8 9.2h-1q-.25 0-.5.2-.3.25-.3.65 0 1.3 1.3 2.25 1.45.8 3.05.8h.4v.75q0 .25.1.35.1.1.4.1h1.65q.2 0 .3-.1.1-.1.1-.35v-.75q2.65-.05 3.65-.95Q18 11.25 18 9.7q0-1.6-1.5-2.4-1.15-.75-3.2-1.15v-2.6q1.2.2 1.55.85.3.75 1.1.75h.9q.25 0 .55-.2.3-.2.3-.75m-6.95-.65V5.6q-1.6-.45-1.6-1 0-1.05 1.5-1.05h.1M13.3 8.8q1.65.4 1.65 1 0 .95-1.4.95h-.25V8.8Z"/></svg>