<svg xmlns="http://www.w3.org/2000/svg" viewBox="0 0 24 24"><path fill="#FFF" d="M6.95 8.6q-.35.55-.95 1.65-.65 1.25-1.45 2.8Q7.5 15.6 12 20l4.65-4.45q-1.95-1.6-4.4-3.4Q9.2 9.9 6.95 8.6M1.2 10.3q.7.55 1.3 1.05 2.3-1.5 4.45-2.75Q9.6 7.1 12 6.05 9.35 5.8 6.9 5.8 3.75 7.2 0 9.45q.75.5 1.2.85m15.85-1.7.4-2.65Q14.45 4.65 12 4q-.9.25-2.9.95 4.3 1.4 7.95 3.65m2.8-1.45q-1.8.8-3.8 2.1-1.75 1.1-4.05 2.7 1.7.25 3.55.65 1.8.35 3.6.75 2.45-2.2 4.85-3.9-2.4-1.45-4.15-2.3m-5.2.8q-.2-.3-.6-.5-.85-.5-2.05-.5-1.25 0-2.1.5-.4.2-.6.5-.25.35-.25.7t.25.65q.2.3.6.55.85.5 2.1.5 1.2 0 2.05-.5.4-.25.6-.55.25-.3.25-.65 0-.35-.25-.7Z"/></svg>