
<svg xmlns="http://www.w3.org/2000/svg" viewBox="0 0 24 24">


<path fill="#FF9900" d="
M 24 22.3
L 24 15.55
Q 24 14.85 23.45 14.35 22.95 13.85 22.3 13.85
L 1.65 13.85
Q 1 13.85 0.5 14.35 0 14.85 0 15.55
L 0 22.3
Q 0 22.95 0.5 23.45 1 24 1.65 24
L 22.3 24
Q 22.95 24 23.45 23.45 24 22.95 24 22.3
M 7.95 15.85
L 8.95 14.85
Q 9.2 14.7 9.45 14.7 9.8 14.7 9.95 14.85
L 12 16.9 14 14.85
Q 14.25 14.7 14.5 14.7 14.85 14.7 15 14.85
L 16.05 15.85
Q 16.2 16.05 16.2 16.4 16.2 16.7 16.05 16.9
L 14 18.9 16.05 20.95
Q 16.2 21.1 16.2 21.45 16.2 21.7 16.05 21.95
L 15 22.95
Q 14.85 23.15 14.5 23.15 14.25 23.15 14 22.95
L 12 20.95 9.95 22.95
Q 9.8 23.15 9.45 23.15 9.2 23.15 8.95 22.95
L 7.95 21.95
Q 7.75 21.7 7.75 21.45 7.75 21.1 7.95 20.95
L 9.95 18.9 7.95 16.9
Q 7.75 16.7 7.75 16.4 7.75 16.05 7.95 15.85 Z"/>

<path fill="#FFFF00" d="
M 24 8.45
L 24 1.65
Q 24 1 23.45 0.5 22.95 0 22.3 0
L 1.65 0
Q 1 0 0.5 0.5 0 1 0 1.65
L 0 8.45
Q 0 9.1 0.5 9.6 1 10.1 1.65 10.1
L 22.3 10.1
Q 22.95 10.1 23.45 9.6 24 9.1 24 8.45
M 16.2 2.5
Q 16.2 2.85 16.05 3
L 14 5.05 16.05 7.1
Q 16.2 7.35 16.2 7.6 16.2 7.95 16.05 8.1
L 15 9.1
Q 14.85 9.35 14.5 9.35 14.2 9.35 14 9.1
L 12 7.1 9.95 9.1
Q 9.8 9.35 9.45 9.35 9.2 9.35 8.95 9.1
L 7.95 8.1
Q 7.75 7.95 7.75 7.6 7.75 7.35 7.95 7.1
L 9.95 5.05 7.95 3
Q 7.75 2.85 7.75 2.5 7.75 2.25 7.95 2
L 8.95 1
Q 9.2 0.85 9.45 0.85 9.8 0.85 9.95 1
L 12 3 14 1
Q 14.2 0.85 14.5 0.85 14.85 0.85 15 1
L 16.05 2
Q 16.2 2.25 16.2 2.5 Z"/>








</svg>
