<svg xmlns="http://www.w3.org/2000/svg" viewBox="0 0 24 24"><path fill="#FFF" d="M22.9 12.3q-.2-.35-.45-.65-.65-.6-1.55-.7h-1.75L18.2 9.7q-.85-1.15-1.35-1.95-.45-.7-1.2-.7H13.4v-.2q0-.15-.1-.3-.1-.1-.3-.1-.15 0-.25.1-.15.15-.15.3v.2h-.45q-.1 0-.25.15-.1.1-.1.2v6.1h-.75v-2.25h-.9l-5.6-5.6q-.2-.2-.5-.2t-.5.2q-.2.2-.2.5 0 .25.2.5L3.9 7v3.5q0 .2-.1.35h-.05q-.1.15-.3.15-.2 0-.35-.15-.15-.15-.15-.35 0-.2-.1-.35-.15-.1-.35-.1-.2 0-.35.1-.1.15-.15.3v.05q0 .2.05.35.1.35.4.65.4.45 1 .45t1-.45q.3-.3.4-.65v-2.9L9.1 12.2v1.3H3.85v-.45q0-.2-.1-.3-.15-.1-.3-.1-.2 0-.3.1-.1.1-.1.3v.45H2.1q-.05.05-.15.1L.1 15.55q-.1.1-.1.2t.05.2q.05.1.1.15.1.05.2.05H2.2q0 .5.2.9.2.45.55.75.35.35.8.5.45.2.95.2.45 0 .9-.2t.8-.5q.35-.3.55-.75.2-.4.25-.9h10.3q0 .5.2.9.25.45.55.75.35.3.8.5.45.2.95.2.45 0 .9-.2t.8-.5q.25-.25.45-.55l.1-.2q.2-.4.25-.9h1.25q.1-.05.15-.2.1-.1.1-.2v-2.1q0-.2-.1-.3-.15-.15-.3-.15h-.4l-.1-.3q-.05-.3-.2-.6m-1.65 3.65q0 .55-.4.9-.35.4-.85.4-.55 0-.9-.4-.4-.35-.4-.9 0-.5.4-.85.35-.4.9-.4.5 0 .85.4.4.35.4.85m-7.85-7.6h1.3q1.5-.05 2.35 2.35H13.4V8.35m-7.45 7.6q0 .55-.4.9-.35.4-.85.4-.55 0-.9-.4-.4-.35-.4-.9 0-.5.4-.85.35-.4.9-.4.5 0 .85.4.4.35.4.85m-.6 0q0-.25-.2-.45t-.5-.2q-.25 0-.45.2t-.2.45q0 .3.2.5t.45.2q.3 0 .5-.2t.2-.5m15.1.5q.2-.2.2-.5 0-.25-.2-.45t-.45-.2q-.3 0-.5.2t-.2.45q0 .3.2.5t.5.2q.25 0 .45-.2Z"/></svg>