<svg xmlns="http://www.w3.org/2000/svg" viewBox="0 0 24 24"><path fill="#333" d="M4.2 3.25q-.2 0-.35.05-.2.1-.35.25L.25 6.75q-.2.25-.25.5-.05.3.05.6.1.25.35.4.25.2.55.2H2.9v6.8q0 .65.25 1.25t.7 1.05q.45.45 1.05.7.6.25 1.25.25h5.2q.55 0 .9-.4.4-.35.4-.9t-.4-.9q-.35-.4-.9-.4h-5.2q-.25 0-.45-.2t-.2-.45v-6.8h1.95q.3 0 .55-.2.25-.15.35-.4.1-.3.05-.6-.05-.25-.25-.5L4.9 3.55q-.15-.15-.35-.25-.15-.05-.35-.05m16.9 12.3V8.8q0-.7-.25-1.3-.25-.55-.7-1-.45-.45-1.05-.7-.6-.25-1.25-.25h-5.2q-.55 0-.9.35-.4.4-.4.95 0 .5.4.9.35.4.9.4h5.2q.25 0 .45.15.2.2.2.5v6.75h-1.95q-.3 0-.55.2-.25.15-.35.4-.1.3-.05.6.05.25.25.5l3.25 3.2q.25.35.7.35.2 0 .35-.1.2-.05.35-.2l3.25-3.25q.2-.2.25-.5.05-.25-.05-.55-.1-.25-.35-.45-.25-.2-.55-.2H21.1m-4.9-4.35q0-.25-.2-.45-.15-.25-.45-.25h-7.2q-.3 0-.45.25-.2.2-.2.45v1.75q0 .25.2.45.15.15.45.15h7.2q.3 0 .45-.15.2-.2.2-.45V11.2Z"/></svg>