<svg xmlns="http://www.w3.org/2000/svg" viewBox="0 0 24 24"><path fill="#FFF" d="M20.4 18V3.6q0-.75-.3-1.4-.25-.65-.75-1.15-.5-.5-1.15-.75-.65-.3-1.4-.3H4.2q.3.4.45.85.15.45.15.95v18.6q0 .55.25 1 .2.5.6.8.4.35.9.5.5.15 1.05.05.9-.1 1.45-.85.55-.7.55-1.65V18h10.8M14.85 6l.2-.1.15.05 3.05 2.85.1.2h-.05v.15l-3.1 2.9-.15.05-.2-.05-.9-1-.05-.2.05-.15L15.9 9l-1.95-1.7q-.05 0-.05-.15l.05-.2.9-.95m-4.7-.1.2.1.85.95.1.2q0 .15-.1.15L9.3 9l1.9 1.7.1.15-.1.2-.85 1-.2.05-.2-.05-3-2.85q-.1-.05-.1-.2l.05-.15 3.05-2.9.2-.05M3.6 1.8q0-.75-.55-1.25Q2.55 0 1.8 0T.55.55Q0 1.05 0 1.8v2.4q0 .25.2.4.15.2.4.2h3v-3m20.4 18q0-.25-.2-.4-.15-.2-.4-.2H10.8v1.2q0 .75-.3 1.4-.25.65-.75 1.15-.5.5-1.15.75-.609375.28125-1.25.3H19.8q.85 0 1.65-.35.75-.3 1.3-.9.6-.55.9-1.3.35-.8.35-1.65Z"/></svg>