<svg xmlns="http://www.w3.org/2000/svg" viewBox="0 0 24 24"><path fill="#FFF" d="M7.5 5.95q-.75-.2-1.7-.3V3.7H3.4v2.05q-.85.2-1.4.55-.55.35-.9.8-.35.45-.5 1-.15.55-.15 1.1 0 .85.25 1.4.3.55.75.95.45.35 1.05.65.6.3 1.2.5.65.2 1.15.4.5.15.85.4.35.2.5.5.2.25.2.65 0 .65-.5.95-.45.3-1.6.3-1 0-1.9-.3-.9-.25-1.6-.55L0 17.1q.4.25 1.2.5.85.3 2.15.45v2.2h2.4V18q.95-.1 1.6-.45.65-.35 1-.85.4-.45.55-1 .2-.55.2-1.15 0-.8-.3-1.4-.25-.6-.8-1.05-.5-.45-1.2-.8-.65-.35-1.5-.65-.55-.2-.9-.35-.4-.15-.7-.35-.3-.15-.45-.4-.1-.2-.1-.55 0-.45.4-.8.35-.4 1.35-.4.9 0 1.75.2.8.2 1.4.45l.6-2.15q-.4-.15-1.15-.35m6.1-.7H11v13h2.6v-13M24 7.4V5.25h-7.95v13h2.6v-5.6h4.7v-2.1h-4.7V7.4H24Z"/></svg>