<svg xmlns="http://www.w3.org/2000/svg" viewBox="0 0 24 24"><path fill="#FFF" d="M20.85 3.9q-.25-.25-.35-.4Q16.95 0 12 0 7 0 3.5 3.5T0 12q0 3.3 1.55 5.95H15q1.2 0 1.45-1.2l1.35-5.6q.15-.8-.3-1.05-.25-.15-.65-.15h-4.5q-1.15.05-1.4 1.2l-.25 1H8.55L9.3 9q.25-1.2 1.45-1.2h8.75q1.2 0 .95 1.2l-2.3 9.9q-.3 1.2-1.5 1.2H3.15q.1.15.35.4Q7 24 12 24q4.95 0 8.5-3.5Q24 16.95 24 12q0-3.3-1.55-5.95H9q-1.2 0-1.5 1.2l-1.3 5.6q-.2.8.25 1.05.25.15.65.15h4.55q1.15-.05 1.4-1.2l.25-1.05h2.15l-.75 3.15q-.3 1.2-1.5 1.2H4.45q-1.2 0-.9-1.2l2.3-9.85Q6.1 3.9 7.3 3.9h13.55Z"/></svg>