<svg version="1.1" viewBox="0 0 24 24" xmlns="http://www.w3.org/2000/svg"><path d="m5.2188 21.875v-4.1484c1.8491 2.3399 3.9907 3.5098 6.4219 3.5098 1.0729 0 1.9623-0.2971 2.6699-0.89062 0.71908-0.60494 1.0781-1.3581 1.0781-2.2598 0-1.461-1.0502-2.8414-3.1504-4.1426l-2.6016-1.5762c-1.6322-0.99301-2.7959-1.969-3.4922-2.9277-0.68484-0.97018-1.0273-2.0824-1.0273-3.3379 0-1.8833 0.64998-3.4123 1.9512-4.5879 0.46652-0.41784 0.98427-0.75801 1.5488-1.0273a12 12 0 0 0-8.6172 11.514 12 12 0 0 0 5.2188 9.875z" fill="#338000"/><path d="m17.609 1.3926c0.01869 0.012377 0.03799 0.02264 0.05664 0.035156v3.8867c-1.7235-1.655-3.5784-2.4824-5.5645-2.4824-1.1186-1e-7 -2.0368 0.26207-2.7559 0.78711-0.71908 0.51363-1.0781 1.1759-1.0781 1.9863 0 0.71908 0.26207 1.3918 0.78711 2.0195s1.3751 1.2839 2.5508 1.9688l2.6191 1.541c2.922 1.7349 4.3828 3.9489 4.3828 6.6426 0 1.9175-0.64382 3.4773-1.9336 4.6758-0.52358 0.49086-1.1158 0.87425-1.7695 1.1641a12 12 0 0 0 9.0957-11.617 12 12 0 0 0-6.3906-10.607z" fill="#fc0"/></svg>