<svg xmlns="http://www.w3.org/2000/svg" viewBox="0 0 24 24"><path fill="#FFF" d="M7.6 17.4q-1-.4-2.1.25-1.15.65-1.75 1.95-.05 0-.05.05-.6 1.3-.3 2.55.1.35.25.65.35.75 1.15 1.05 1.15.35 2.35-.4.4-.3.75-.65.55-.6.9-1.45v-.05q.55-1.3.15-2.5-.35-1.1-1.35-1.45m1.05-.25q.6.5.85 1.4.45 1.35-.1 2.9.25.15.5.15.2 0 .4-.05.2-.1.45-.25.7-.5 1.1-1.5l.15-.35-4.15-3.6q-.55-.2-1.05-.65-1.3-1.15-1.2-3l-2.85 5.4q-.3.6-.15 1.15.15.5.6.65.75-1.6 2.15-2.35 1.3-.75 2.55-.3l.2.1q.3.1.55.3M3.15 9.4q-.8.15-1.65.85-.9.75-1.3 1.8-.1.25-.15.5-.1.55 0 1 .05.15.15.3.45.75 1.45.55h.05q1-.25 1.9-1.25.8-.9 1.05-1.9.2-.95-.25-1.45-.4-.5-1.25-.4m.15-.45q.95-.1 1.45.5.55.6.3 1.7-.2 1.25-1.2 2.35-1.1 1.25-2.35 1.55h-.05q-.2.5.1.85.35.35 1 .35h.55l2.55-4.55v-.15q.2-1.1.75-2.15Q7 8.3 8 7.35q.3-.3.6-.55l-3.1.6q-.5.1-.9.3-.15.1-.35.2-.65.45-1 1.05h.05m8.6-5.9q.45-.85.1-1.45-.3-.55-1.1-.6-.8-.05-1.75.4-.95.5-1.5 1.25-.6.9-.45 1.6.2.8 1.15.9 1 .1 2.1-.55 1.05-.65 1.45-1.55m1.25-1.85h-.1q-.3 0-.6.15.4.75-.05 1.7Q11.9 4.2 10.6 5q-1.35.85-2.55.7Q6.8 5.6 6.6 4.6q-.65.4-.95 1.15-.25.65-.05 1.3l3.35-.55q1.55-1.2 3.3-1.5 1.7-.35 2.9.25l-.75-3q-.15-.6-.75-.85-.25-.15-.5-.2m9.3 16.5q.9-1.3.75-2.7-.15-1.35-1.2-2.15-1.1-.75-2.55-.45-1.5.25-2.5 1.45-1.05 1.25-1 2.75.05 1.55 1.25 2.4 1.2.8 2.75.4 1.55-.35 2.5-1.7m.25-6.65q-.1-.7-.65-1l-1.95-1.1-3.8 2.75q-.5.9-1.3 1.75-.45.45-.95.85-1.55 1.25-3.35 1.65-1 .2-1.8.15-.2-.05-.4-.05l4.75 3.75q.8.65 1.8.6.95 0 1.55-.7-1.45-1-1.5-2.9-.05-1.8 1.25-3.35Q17.6 12 19.4 11.7q1.75-.35 3.05.55 0 .05.05.05.35-.6.2-1.25M22.75 6q.3-.8-.05-1.45l-.05.05Q21.2 5.65 19.6 5.85q-.35.05-.65.05-1.1.05-1.8-.55-.9-.75-.55-2 .3-1.3 1.75-2.45l.05-.05Q18 .6 17.4.7q-.55.1-1.05.45L14.8 2.3l.65 3.05q.25.2.55.4 0 .05.05.05 1.35 1.2 1.1 3.4-.15 1-.6 2l5.25-3.95q.7-.55.95-1.25m-.4-5.95q-.45-.1-1 0-1.4.25-2.55 1.15h-.05q-1.2.95-1.45 2.05-.3 1.05.45 1.65.7.6 2 .4 1.35-.15 2.55-1.05 1.2-.9 1.55-2l.1-.2q.2-.95-.45-1.55-.45-.4-1.15-.45Z"/></svg>