<svg xmlns="http://www.w3.org/2000/svg" viewBox="0 0 24 24"><path fill="#fffb00" d="M20.8 23.45q.55.55 1.35.55.75 0 1.3-.55T24 22.1q0-.75-.55-1.3l-5.6-5.6q.525-.775.9-1.65.75-1.8.75-3.8 0-2-.75-3.8-.75-1.75-2.1-3.1t-3.1-2.1Q11.75 0 9.75 0q-2 0-3.8.75-1.75.75-3.1 2.1t-2.1 3.1Q0 7.75 0 9.75q0 2 .75 3.8.75 1.75 2.1 3.1t3.1 2.1q1.8.75 3.8.75 2 0 3.8-.75.875-.375 1.65-.9l5.6 5.6m-8.15-20.6q1.35.55 2.4 1.6 1.05 1.05 1.6 2.4.6 1.35.6 2.9 0 1.5-.6 2.9-.55 1.35-1.6 2.4-1.05 1.05-2.4 1.6-1.4.6-2.9.6t-2.9-.6q-1.35-.55-2.4-1.6-1.05-1.05-1.6-2.4-.6-1.4-.6-2.9 0-1.55.6-2.9.55-1.35 1.6-2.4 1.05-1.05 2.4-1.6 1.4-.6 2.9-.6t2.9.6m-.6 2.1q-.45-.9-1.5-1.1-.35-.05-.4-.05-.2-.05-.4-.05t-.4.05-.4.05q-1.05.2-1.5 1.1-.35.65-.35 1.8 0 .7.35 1.5.3.8.8 1.4v.1q0 .6-.45 1.05-.45.45-1.05.45H6q-.05 0-.15.05-.15.05-.35.2-.6.35-1.1.95.75 1.5 2.15 2.4 1.45.9 3.2.9 1.7 0 3.15-.9t2.2-2.4q-.5-.6-1.1-.95-.2-.15-.35-.2l-.15-.05h-.75q-.6 0-1.05-.45-.45-.45-.45-1.05v-.1q.5-.6.8-1.4.3-.8.3-1.5 0-1.15-.3-1.8Z"/></svg>