<svg xmlns="http://www.w3.org/2000/svg" viewBox="0 0 24 24"><path fill="#FBBC04" d="M16.3 5.2h-5.95v2.95h5.95V5.2Z"/><path fill="#34A853" d="M5.9 9.65H0v2.95h5.9V9.65Z"/><path fill="#2A5683" d="M2.95 18.1q0 1.2-.85 2.1-.9.85-2.1.85V24q2.45 0 4.2-1.75 1.7-1.7 1.7-4.15v-4H2.95v4m1.5-12.9H1.5v2.95l3.25.05q1.1.1 1.9.95.75.85.75 1.95v6.55h2.95V11.1q0-2.45-1.7-4.15Q6.9 5.2 4.45 5.2M13 9.3q-1.5 0-1.5 1.6v2.05q0 .45.15.75l.05.05q.35.7 1.35.7h1.85q.4.05.4.45v.15q0 .45-.4.5h-3.4v2.1h4.1q1.6 0 1.6-1.6V14q0-.1-.05-.25v-.05q-.15-1.15-1.45-1.15h-1.8q-.5 0-.5-.55v-.15q0-.45.5-.45h3.3V9.3H13m-2.55-5.5q.65-.65.65-1.6 0-.9-.65-1.55T8.85 0q-.9 0-1.55.65T6.65 2.2q0 .95.65 1.6.65.65 1.55.65.95 0 1.6-.65m9.8 13.85h1.85V11.4H24V9.3h-5.65v2.1h1.9v6.25Z"/></svg>