<svg xmlns="http://www.w3.org/2000/svg" viewBox="0 0 24 24"><path fill="#FFF" d="M23.05 7.35Q22.1 5.2 20.4 3.5 18.7 1.8 16.55.9 14.4 0 12 0T7.35.95q-2.1.9-3.75 2.55T1.05 7.3Q.1 9.5.1 11.9q0 1.6.4 3.1t1.2 2.85L0 24l6.3-1.65q1.3.75 2.75 1.1 1.45.35 2.95.35 2.4 0 4.65-.95 2.15-.9 3.8-2.55 1.7-1.65 2.6-3.75.95-2.2.95-4.65 0-2.35-.95-4.55M22 11.9q0 2-.8 3.85-.75 1.8-2.15 3.15-1.4 1.35-3.2 2.15-1.85.75-3.85.75-1.35 0-2.6-.35-1.3-.35-2.45-1l-.35-.25-3.75 1 1-3.65-.25-.4q-.7-1.15-1.1-2.5-.4-1.35-.4-2.75 0-2 .8-3.85Q3.65 6.3 5 4.9q1.4-1.35 3.15-2.1Q10 2.05 12 2.05t3.8.7q1.8.75 3.2 2.15 1.4 1.45 2.2 3.25.8 1.8.8 3.75M9.95 9.15q-.05-.1-.4-.95-.4-.95-.55-1.25-.15-.4-.35-.45-.05-.05-.3-.05-.2-.05-.55-.05-.2 0-.4.1-.25.1-.4.3-.45.5-.65.8-.4.75-.4 1.65 0 .95.55 2.05.25.5.65 1.05.05.05.45.6.5.65 1.05 1.25 1.7 1.85 3.6 2.65 1.3.55 2.1.7.7.15 1.45.05.5-.1 1.15-.5.7-.45.85-.95.15-.45.2-.9.05-.4 0-.5-.05-.1-.2-.15l-.4-.2-1-.5q-.85-.4-1-.45-.25-.1-.4-.1-.15.05-.3.25-.2.35-.95 1.15-.1.15-.25.15-.15.05-.35-.05-1.55-.8-2.25-1.4-1-.8-1.8-2.15-.1-.2-.1-.3.05-.15.2-.3.25-.3.35-.35.2-.3.4-.7.1-.2 0-.5Z"/></svg>